<?xml version="1.0" encoding="UTF-8"?>
<!DOCTYPE svg PUBLIC "-//W3C//DTD SVG 1.1//EN" "http://www.w3.org/Graphics/SVG/1.1/DTD/svg11.dtd">
<svg xmlns="http://www.w3.org/2000/svg" version="1.1" width="512px" height="512px" style="shape-rendering:geometricPrecision; text-rendering:geometricPrecision; image-rendering:optimizeQuality; fill-rule:evenodd; clip-rule:evenodd" xmlns:xlink="http://www.w3.org/1999/xlink">
<g><path style="opacity:0.993" fill="#36b0bf" d="M 240.5,-0.5 C 243.833,-0.5 247.167,-0.5 250.5,-0.5C 250.5,32.8333 250.5,66.1667 250.5,99.5C 240.031,102.309 232.697,108.642 228.5,118.5C 228.5,79.5 228.5,40.5 228.5,1.5C 232.5,0.833333 236.5,0.166667 240.5,-0.5 Z"/></g>
<g><path style="opacity:0.992" fill="#3aafba" d="M 250.5,-0.5 C 255.833,-0.5 261.167,-0.5 266.5,-0.5C 266.832,33.3375 266.498,67.0041 265.5,100.5C 260.547,99.6708 255.547,99.3375 250.5,99.5C 250.5,66.1667 250.5,32.8333 250.5,-0.5 Z"/></g>
<g><path style="opacity:0.993" fill="#3eadb6" d="M 266.5,-0.5 C 268.167,-0.5 269.833,-0.5 271.5,-0.5C 275.73,0.220164 280.063,0.886831 284.5,1.5C 284.5,42.8333 284.5,84.1667 284.5,125.5C 282.321,113.991 275.988,105.657 265.5,100.5C 266.498,67.0041 266.832,33.3375 266.5,-0.5 Z"/></g>
<g><path style="opacity:0.995" fill="#42acb3" d="M 284.5,1.5 C 291.093,1.67798 297.426,2.67798 303.5,4.5C 303.832,53.0029 303.499,101.336 302.5,149.5C 295.805,145.984 288.805,143.317 281.5,141.5C 282.714,136.216 283.714,130.882 284.5,125.5C 284.5,84.1667 284.5,42.8333 284.5,1.5 Z"/></g>
<g><path style="opacity:0.996" fill="#2fb2c5" d="M 228.5,1.5 C 228.5,40.5 228.5,79.5 228.5,118.5C 226.993,126.068 227.493,133.401 230,140.5C 216.007,145.409 203.507,152.742 192.5,162.5C 192.829,110.762 192.495,59.095 191.5,7.5C 203.633,4.31115 215.967,2.31115 228.5,1.5 Z"/></g>
<g><path style="opacity:0.996" fill="#46abaf" d="M 303.5,4.5 C 376.751,19.2852 433.584,57.9518 474,120.5C 494.408,154.56 506.908,191.227 511.5,230.5C 511.5,247.5 511.5,264.5 511.5,281.5C 500.125,368.788 456.791,434.955 381.5,480C 357.414,493.639 331.748,502.806 304.5,507.5C 303.839,468.069 303.172,428.736 302.5,389.5C 308.206,380.718 311.539,371.051 312.5,360.5C 331.926,360.975 351.259,360.475 370.5,359C 372.81,357.363 374.31,355.196 375,352.5C 375.667,344.5 375.667,336.5 375,328.5C 366.42,314.347 357.087,300.68 347,287.5C 346.667,264.833 346.333,242.167 346,219.5C 341.899,189.593 327.399,166.26 302.5,149.5C 303.499,101.336 303.832,53.0029 303.5,4.5 Z"/></g>
<g><path style="opacity:0.995" fill="#28b4cc" d="M 191.5,7.5 C 192.495,59.095 192.829,110.762 192.5,162.5C 178.869,176.09 170.203,192.423 166.5,211.5C 165.169,146.264 165.169,80.931 166.5,15.5C 174.694,12.4354 183.028,9.76869 191.5,7.5 Z"/></g>
<g><path style="opacity:0.998" fill="#22b6d1" d="M 166.5,15.5 C 165.169,80.931 165.169,146.264 166.5,211.5C 165.704,236.477 165.204,261.477 165,286.5C 157.39,297.412 149.556,308.079 141.5,318.5C 140.833,221.5 140.167,124.5 139.5,27.5C 148.078,22.7144 157.078,18.7144 166.5,15.5 Z"/></g>
<g><path style="opacity:0.998" fill="#1cb8d7" d="M 139.5,27.5 C 140.167,124.5 140.833,221.5 141.5,318.5C 139.856,321.004 138.356,323.671 137,326.5C 136.333,335.833 136.333,345.167 137,354.5C 137.996,356.66 139.496,358.327 141.5,359.5C 140.839,401.264 140.172,442.931 139.5,484.5C 130.334,480.327 121.667,475.327 113.5,469.5C 113.5,327.167 113.5,184.833 113.5,42.5C 121.667,36.6734 130.334,31.6734 139.5,27.5 Z"/></g>
<g><path style="opacity:0.998" fill="#16badd" d="M 113.5,42.5 C 113.5,184.833 113.5,327.167 113.5,469.5C 104.434,463.306 95.7673,456.64 87.5,449.5C 88.4996,320.334 88.8329,191.001 88.5,61.5C 96.5253,54.8141 104.859,48.4807 113.5,42.5 Z"/></g>
<g><path style="opacity:0.999" fill="#13bbe0" d="M 88.5,61.5 C 88.8329,191.001 88.4996,320.334 87.5,449.5C 85.1667,447.833 83.1667,445.833 81.5,443.5C 81.5,318.5 81.5,193.5 81.5,68.5C 83.5,65.8333 85.8333,63.5 88.5,61.5 Z"/></g>
<g><path style="opacity:0.997" fill="#0fbde4" d="M 81.5,68.5 C 81.5,193.5 81.5,318.5 81.5,443.5C 76.9083,440.414 72.7417,436.747 69,432.5C 63.0004,425.803 57.5004,418.803 52.5,411.5C 52.8328,307.999 52.4995,204.665 51.5,101.5C 57.1698,93.5287 63.3365,85.8621 70,78.5C 73.4294,74.5615 77.2628,71.2281 81.5,68.5 Z"/></g>
<g><path style="opacity:0.996" fill="#09beea" d="M 51.5,101.5 C 52.4995,204.665 52.8328,307.999 52.5,411.5C 42.6887,399.898 34.3554,387.231 27.5,373.5C 28.4993,295.002 28.8326,216.335 28.5,137.5C 34.6724,124.475 42.339,112.475 51.5,101.5 Z"/></g>
<g><path style="opacity:0.951" fill="#3aafbb" d="M 253.5,117.5 C 263.426,118.021 266.926,123.021 264,132.5C 258.095,138.791 252.428,138.458 247,131.5C 244.746,124.576 246.913,119.909 253.5,117.5 Z"/></g>
<g><path style="opacity:0.991" fill="#03c0ef" d="M 28.5,137.5 C 28.8326,216.335 28.4993,295.002 27.5,373.5C 12.0861,342.832 2.75274,310.498 -0.5,276.5C -0.5,262.833 -0.5,249.167 -0.5,235.5C 2.64639,200.917 12.3131,168.25 28.5,137.5 Z"/></g>
<g><path style="opacity:0.997" fill="#3aafba" d="M 251.5,155.5 C 256.527,155.503 261.527,155.836 266.5,156.5C 266.5,218.167 266.5,279.833 266.5,341.5C 259.5,341.5 252.5,341.5 245.5,341.5C 246.919,340.549 248.585,340.216 250.5,340.5C 250.171,278.762 250.504,217.095 251.5,155.5 Z"/></g>
<g><path style="opacity:0.998" fill="#35b0bf" d="M 251.5,155.5 C 250.504,217.095 250.171,278.762 250.5,340.5C 248.585,340.216 246.919,340.549 245.5,341.5C 236.833,341.5 228.167,341.5 219.5,341.5C 219.5,282.833 219.5,224.167 219.5,165.5C 229.429,159.969 240.096,156.636 251.5,155.5 Z"/></g>
<g><path style="opacity:0.998" fill="#3eadb7" d="M 266.5,156.5 C 274.057,157.465 281.057,159.799 287.5,163.5C 286.5,163.5 285.5,163.5 284.5,163.5C 284.5,222.833 284.5,282.167 284.5,341.5C 278.5,341.5 272.5,341.5 266.5,341.5C 266.5,279.833 266.5,218.167 266.5,156.5 Z"/></g>
<g><path style="opacity:0.997" fill="#42acb3" d="M 287.5,163.5 C 294.281,165.952 299.948,169.952 304.5,175.5C 303.501,230.664 303.168,285.997 303.5,341.5C 297.167,341.5 290.833,341.5 284.5,341.5C 284.5,282.167 284.5,222.833 284.5,163.5C 285.5,163.5 286.5,163.5 287.5,163.5 Z"/></g>
<g><path style="opacity:0.997" fill="#2eb2c6" d="M 219.5,165.5 C 219.5,224.167 219.5,282.833 219.5,341.5C 210.5,341.5 201.5,341.5 192.5,341.5C 192.5,292.5 192.5,243.5 192.5,194.5C 198.37,181.962 207.37,172.295 219.5,165.5 Z"/></g>
<g><path style="opacity:0.987" fill="#46abaf" d="M 304.5,175.5 C 315.472,185.093 322.639,197.093 326,211.5C 327.279,238.132 327.946,264.798 328,291.5C 336.612,304.445 345.612,317.111 355,329.5C 356.354,333.363 356.854,337.363 356.5,341.5C 338.833,341.5 321.167,341.5 303.5,341.5C 303.168,285.997 303.501,230.664 304.5,175.5 Z"/></g>
<g><path style="opacity:0.963" fill="#29b4cb" d="M 192.5,194.5 C 192.5,243.5 192.5,292.5 192.5,341.5C 180.167,341.5 167.833,341.5 155.5,341.5C 155.335,337.818 155.501,334.152 156,330.5C 165.388,318.111 174.388,305.445 183,292.5C 183.333,269.167 183.667,245.833 184,222.5C 184.549,212.363 187.382,203.03 192.5,194.5 Z"/></g>
<g><path style="opacity:0.994" fill="#22b6d1" d="M 141.5,359.5 C 149.445,360.437 157.445,360.77 165.5,360.5C 165.832,405.67 165.499,450.67 164.5,495.5C 155.746,492.619 147.413,488.953 139.5,484.5C 140.172,442.931 140.839,401.264 141.5,359.5 Z"/></g>
<g><path style="opacity:0.994" fill="#28b4cc" d="M 165.5,360.5 C 174.5,360.5 183.5,360.5 192.5,360.5C 192.5,408.5 192.5,456.5 192.5,504.5C 182.825,502.274 173.491,499.274 164.5,495.5C 165.499,450.67 165.832,405.67 165.5,360.5 Z"/></g>
<g><path style="opacity:0.969" fill="#35b0bf" d="M 250.5,360.5 C 250.5,371.5 250.5,382.5 250.5,393.5C 231.877,390.21 220.877,379.21 217.5,360.5C 228.5,360.5 239.5,360.5 250.5,360.5 Z"/></g>
<g><path style="opacity:0.978" fill="#3dadb7" d="M 250.5,360.5 C 264.833,360.5 279.167,360.5 293.5,360.5C 290.038,381.927 277.371,393.26 255.5,394.5C 253.631,394.493 251.964,394.16 250.5,393.5C 250.5,382.5 250.5,371.5 250.5,360.5 Z"/></g>
<g><path style="opacity:0.993" fill="#2eb2c6" d="M 192.5,360.5 C 194.5,360.5 196.5,360.5 198.5,360.5C 200.315,376.625 207.315,389.958 219.5,400.5C 219.5,436.833 219.5,473.167 219.5,509.5C 210.304,508.727 201.304,507.06 192.5,504.5C 192.5,456.5 192.5,408.5 192.5,360.5 Z"/></g>
<g><path style="opacity:0.993" fill="#42acb3" d="M 302.5,389.5 C 303.172,428.736 303.839,468.069 304.5,507.5C 298.074,509.229 291.407,510.229 284.5,510.5C 284.5,475.5 284.5,440.5 284.5,405.5C 291.293,401.096 297.293,395.763 302.5,389.5 Z"/></g>
<g><path style="opacity:0.995" fill="#35b0bf" d="M 219.5,400.5 C 228.61,407.551 238.943,411.551 250.5,412.5C 250.5,445.5 250.5,478.5 250.5,511.5C 242.833,511.5 235.167,511.5 227.5,511.5C 224.833,510.833 222.167,510.167 219.5,509.5C 219.5,473.167 219.5,436.833 219.5,400.5 Z"/></g>
<g><path style="opacity:0.999" fill="#3baeb9" d="M 284.5,405.5 C 284.5,440.5 284.5,475.5 284.5,510.5C 283.833,510.5 283.5,510.833 283.5,511.5C 272.5,511.5 261.5,511.5 250.5,511.5C 250.5,478.5 250.5,445.5 250.5,412.5C 262.416,413.693 273.75,411.36 284.5,405.5 Z"/></g>
</svg>
