<?xml version="1.0" encoding="UTF-8"?>
<!DOCTYPE svg PUBLIC "-//W3C//DTD SVG 1.1//EN" "http://www.w3.org/Graphics/SVG/1.1/DTD/svg11.dtd">
<svg xmlns="http://www.w3.org/2000/svg" version="1.1" width="512px" height="512px" style="shape-rendering:geometricPrecision; text-rendering:geometricPrecision; image-rendering:optimizeQuality; fill-rule:evenodd; clip-rule:evenodd" xmlns:xlink="http://www.w3.org/1999/xlink">
<g><path style="opacity:0.988" fill="#000000" d="M 227.5,41.5 C 248.536,41.0839 269.536,41.5839 290.5,43C 319.32,51.1518 336.153,69.9851 341,99.5C 341.5,108.827 341.666,118.161 341.5,127.5C 361.874,127.073 382.207,127.573 402.5,129C 434.651,137.152 455.818,156.985 466,188.5C 469.104,203.665 470.271,218.999 469.5,234.5C 326.833,234.5 184.167,234.5 41.5,234.5C 37.0376,201.796 46.0376,173.629 68.5,150C 80.1064,139.862 93.4397,132.862 108.5,129C 128.793,127.573 149.126,127.073 169.5,127.5C 169.168,115.79 169.668,104.124 171,92.5C 179.324,63.6685 198.157,46.6685 227.5,41.5 Z M 229.5,85.5 C 246.837,85.3334 264.17,85.5001 281.5,86C 288.318,87.3263 293.152,91.1596 296,97.5C 297.395,107.434 297.895,117.434 297.5,127.5C 269.5,127.5 241.5,127.5 213.5,127.5C 213.105,117.434 213.605,107.434 215,97.5C 218.081,91.2314 222.914,87.2314 229.5,85.5 Z"/></g>
<g><path style="opacity:0.992" fill="#000000" d="M 41.5,276.5 C 184.167,276.5 326.833,276.5 469.5,276.5C 469.953,317.194 469.453,357.861 468,398.5C 458.364,439.802 432.531,463.302 390.5,469C 300.5,469.667 210.5,469.667 120.5,469C 78.4689,463.302 52.6355,439.802 43,398.5C 41.5408,357.864 41.0408,317.197 41.5,276.5 Z"/></g>
</svg>
