<?xml version="1.0" encoding="UTF-8"?>
<!DOCTYPE svg PUBLIC "-//W3C//DTD SVG 1.1//EN" "http://www.w3.org/Graphics/SVG/1.1/DTD/svg11.dtd">
<svg xmlns="http://www.w3.org/2000/svg" version="1.1" width="512px" height="512px" style="shape-rendering:geometricPrecision; text-rendering:geometricPrecision; image-rendering:optimizeQuality; fill-rule:evenodd; clip-rule:evenodd" xmlns:xlink="http://www.w3.org/1999/xlink">
<g><path style="opacity:0.999" fill="#25a2d9" d="M 35.5,84.5 C 182.167,84.3333 328.834,84.5 475.5,85C 491.077,88.3234 500.243,97.8234 503,113.5C 503.667,202.5 503.667,291.5 503,380.5C 499.792,395.751 490.625,405.251 475.5,409C 328.833,409.667 182.167,409.667 35.5,409C 20.3751,405.251 11.2084,395.751 8,380.5C 7.33333,291.5 7.33333,202.5 8,113.5C 10.8957,97.7734 20.0624,88.1068 35.5,84.5 Z"/></g>
<g><path style="opacity:1" fill="#295575" d="M 439.5,110.5 C 442.607,110.351 445.607,110.851 448.5,112C 477.415,141.506 484.582,175.673 470,214.5C 464.924,226.157 457.757,236.324 448.5,245C 439.128,248.572 434.628,245.406 435,235.5C 464.535,204.628 468.202,170.961 446,134.5C 442.333,130.167 438.667,125.833 435,121.5C 434.333,119.833 434.333,118.167 435,116.5C 436.332,114.34 437.832,112.34 439.5,110.5 Z"/></g>
<g><path style="opacity:1" fill="#fbca55" d="M 67.5,127.5 C 67.5,141.833 67.5,156.167 67.5,170.5C 59.1667,170.5 50.8333,170.5 42.5,170.5C 42.0441,159.064 42.5441,147.731 44,136.5C 49.7416,128.39 57.5749,125.39 67.5,127.5 Z"/></g>
<g><path style="opacity:1" fill="#e2b550" d="M 67.5,127.5 C 73.1667,127.5 78.8333,127.5 84.5,127.5C 84.5,141.833 84.5,156.167 84.5,170.5C 90.5,170.5 96.5,170.5 102.5,170.5C 102.5,156.167 102.5,141.833 102.5,127.5C 107.833,127.5 113.167,127.5 118.5,127.5C 118.5,141.833 118.5,156.167 118.5,170.5C 127.167,170.5 135.833,170.5 144.5,170.5C 144.5,176.167 144.5,181.833 144.5,187.5C 124.5,187.5 104.5,187.5 84.5,187.5C 84.5,195.833 84.5,204.167 84.5,212.5C 78.8333,212.5 73.1667,212.5 67.5,212.5C 67.5,204.167 67.5,195.833 67.5,187.5C 59.1667,187.5 50.8333,187.5 42.5,187.5C 42.5,181.833 42.5,176.167 42.5,170.5C 50.8333,170.5 59.1667,170.5 67.5,170.5C 67.5,156.167 67.5,141.833 67.5,127.5 Z"/></g>
<g><path style="opacity:1" fill="#fac954" d="M 84.5,127.5 C 90.5,127.5 96.5,127.5 102.5,127.5C 102.5,141.833 102.5,156.167 102.5,170.5C 96.5,170.5 90.5,170.5 84.5,170.5C 84.5,156.167 84.5,141.833 84.5,127.5 Z"/></g>
<g><path style="opacity:1" fill="#faca55" d="M 118.5,127.5 C 130.25,125.117 138.75,129.117 144,139.5C 144.5,149.828 144.666,160.161 144.5,170.5C 135.833,170.5 127.167,170.5 118.5,170.5C 118.5,156.167 118.5,141.833 118.5,127.5 Z"/></g>
<g><path style="opacity:1" fill="#295575" d="M 414.5,127.5 C 417.32,127.248 419.986,127.748 422.5,129C 448.037,158.089 450.204,188.923 429,221.5C 426.473,224.027 423.973,226.527 421.5,229C 412.333,230.5 408.5,226.667 410,217.5C 431.951,191.484 431.951,165.484 410,139.5C 408.309,134.131 409.809,130.131 414.5,127.5 Z"/></g>
<g><path style="opacity:1" fill="#295575" d="M 388.5,153.5 C 394.798,152.732 399.631,155.065 403,160.5C 408.693,169.479 410.026,179.146 407,189.5C 404.42,197.051 399.42,202.051 392,204.5C 384.334,202.501 382,197.834 385,190.5C 393.659,182.547 393.659,174.547 385,166.5C 382.348,161.039 383.514,156.706 388.5,153.5 Z"/></g>
<g><path style="opacity:1" fill="#fbca55" d="M 42.5,187.5 C 50.8333,187.5 59.1667,187.5 67.5,187.5C 67.5,195.833 67.5,204.167 67.5,212.5C 48.8551,214.522 40.5218,206.188 42.5,187.5 Z"/></g>
<g><path style="opacity:1" fill="#fbca55" d="M 144.5,187.5 C 145.332,194.255 144.165,200.589 141,206.5C 139.269,208.617 137.102,210.117 134.5,211C 117.903,212.456 101.237,212.956 84.5,212.5C 84.5,204.167 84.5,195.833 84.5,187.5C 104.5,187.5 124.5,187.5 144.5,187.5 Z"/></g>
<g><path style="opacity:1" fill="#285474" d="M 64.5,272.5 C 83.5029,272.333 102.503,272.5 121.5,273C 127.753,276.003 129.087,280.503 125.5,286.5C 124.335,287.584 123.002,288.417 121.5,289C 102.5,289.667 83.5,289.667 64.5,289C 59.391,285.634 58.2243,281.134 61,275.5C 62.5185,274.837 63.6851,273.837 64.5,272.5 Z"/></g>
<g><path style="opacity:1" fill="#285474" d="M 150.5,272.5 C 169.17,272.333 187.836,272.5 206.5,273C 211.924,275.017 213.758,278.85 212,284.5C 211.167,286.667 209.667,288.167 207.5,289C 188.167,289.667 168.833,289.667 149.5,289C 142.657,283.052 142.991,277.552 150.5,272.5 Z"/></g>
<g><path style="opacity:1" fill="#285474" d="M 235.5,272.5 C 254.17,272.333 272.836,272.5 291.5,273C 297.851,275.201 299.685,279.368 297,285.5C 295.786,287.049 294.286,288.215 292.5,289C 273.167,289.667 253.833,289.667 234.5,289C 230.673,285.692 229.506,281.526 231,276.5C 232.397,274.93 233.897,273.596 235.5,272.5 Z"/></g>
<g><path style="opacity:1" fill="#285474" d="M 320.5,272.5 C 339.503,272.333 358.503,272.5 377.5,273C 383.753,276.003 385.087,280.503 381.5,286.5C 380.335,287.584 379.002,288.417 377.5,289C 358.5,289.667 339.5,289.667 320.5,289C 315.391,285.634 314.224,281.134 317,275.5C 318.518,274.837 319.685,273.837 320.5,272.5 Z"/></g>
<g><path style="opacity:1" fill="#295575" d="M 158.5,306.5 C 171.504,306.333 184.504,306.5 197.5,307C 205.945,311.246 206.612,316.579 199.5,323C 185.5,323.667 171.5,323.667 157.5,323C 151.953,317.032 152.287,311.532 158.5,306.5 Z"/></g>
<g><path style="opacity:1" fill="#295575" d="M 227.5,306.5 C 233.434,305.889 239.1,306.722 244.5,309C 246.934,312.716 247.101,316.549 245,320.5C 244.097,321.701 242.931,322.535 241.5,323C 235.719,323.903 230.053,323.57 224.5,322C 219.807,315.672 220.807,310.505 227.5,306.5 Z"/></g>
<g><path style="opacity:1" fill="#295576" d="M 269.5,306.5 C 274.959,306.103 280.292,306.603 285.5,308C 289.753,311.42 290.587,315.587 288,320.5C 287.097,321.701 285.931,322.535 284.5,323C 279.167,323.667 273.833,323.667 268.5,323C 264.212,319.229 263.379,314.729 266,309.5C 267.518,308.837 268.685,307.837 269.5,306.5 Z"/></g>
<g><path style="opacity:1" fill="#eb3a48" d="M 421.5,335.5 C 416.222,344.8 416.222,354.133 421.5,363.5C 414.477,372.79 405.143,376.29 393.5,374C 377.868,367.467 372.368,355.967 377,339.5C 387.137,322.348 400.637,319.182 417.5,330C 419.439,331.432 420.772,333.265 421.5,335.5 Z"/></g>
<g><path style="opacity:1" fill="#faca55" d="M 421.5,363.5 C 416.222,354.133 416.222,344.8 421.5,335.5C 435.178,319.961 449.345,319.627 464,334.5C 471.975,349.434 469.142,361.934 455.5,372C 441.851,377.646 430.517,374.813 421.5,363.5 Z"/></g>
<g><path style="opacity:1" fill="#295576" d="M 48.5,357.5 C 64.1702,357.333 79.8369,357.5 95.5,358C 102.649,362.522 103.315,367.855 97.5,374C 80.5,374.667 63.5,374.667 46.5,374C 40.674,367.622 41.3406,362.122 48.5,357.5 Z"/></g>
<g><path style="opacity:1" fill="#295576" d="M 125.5,357.5 C 141.17,357.333 156.837,357.5 172.5,358C 177.945,360.11 179.778,363.944 178,369.5C 177.167,371.667 175.667,373.167 173.5,374C 156.833,374.667 140.167,374.667 123.5,374C 119.212,370.229 118.379,365.729 121,360.5C 122.652,359.601 124.152,358.601 125.5,357.5 Z"/></g>
</svg>
