<?xml version="1.0" encoding="UTF-8"?>
<!DOCTYPE svg PUBLIC "-//W3C//DTD SVG 1.1//EN" "http://www.w3.org/Graphics/SVG/1.1/DTD/svg11.dtd">
<svg xmlns="http://www.w3.org/2000/svg" version="1.1" width="512px" height="512px" style="shape-rendering:geometricPrecision; text-rendering:geometricPrecision; image-rendering:optimizeQuality; fill-rule:evenodd; clip-rule:evenodd" xmlns:xlink="http://www.w3.org/1999/xlink">
<g><path style="opacity:0.924" fill="#000000" d="M 230.5,126.5 C 275.178,125.254 310.011,142.921 335,179.5C 356.972,219.17 356.972,258.837 335,298.5C 331.692,303.308 328.192,307.975 324.5,312.5C 343.819,332.32 363.319,351.986 383,371.5C 385.833,382 382,385.833 371.5,383C 351.986,363.319 332.32,343.819 312.5,324.5C 277.114,352.636 238.114,358.802 195.5,343C 151.437,322.555 128.437,287.889 126.5,239C 128.896,188.975 152.896,153.975 198.5,134C 209.008,130.204 219.675,127.704 230.5,126.5 Z M 229.5,142.5 C 269.371,140.851 300.205,156.517 322,189.5C 342.549,228.827 339.549,266.16 313,301.5C 281.696,334.617 244.53,343.45 201.5,328C 160.891,308.347 141.391,275.847 143,230.5C 150.885,180.449 179.718,151.116 229.5,142.5 Z"/></g>
</svg>
