<?xml version="1.0" encoding="UTF-8"?>
<!DOCTYPE svg PUBLIC "-//W3C//DTD SVG 1.1//EN" "http://www.w3.org/Graphics/SVG/1.1/DTD/svg11.dtd">
<svg xmlns="http://www.w3.org/2000/svg" version="1.1" width="512px" height="512px" style="shape-rendering:geometricPrecision; text-rendering:geometricPrecision; image-rendering:optimizeQuality; fill-rule:evenodd; clip-rule:evenodd" xmlns:xlink="http://www.w3.org/1999/xlink">
<g><path style="opacity:0.987" fill="#000000" d="M 57.5,84.5 C 153.834,84.3333 250.167,84.5 346.5,85C 359.302,89.7643 364.469,98.9309 362,112.5C 359.833,120 355,124.833 347.5,127C 250.5,127.667 153.5,127.667 56.5,127C 43.9468,121.349 39.4468,111.849 43,98.5C 45.774,91.5569 50.6073,86.8903 57.5,84.5 Z"/></g>
<g><path style="opacity:0.967" fill="#000000" d="M 59.5,233.5 C 190.167,233.333 320.834,233.5 451.5,234C 466.198,238.553 471.698,248.386 468,263.5C 464.952,270.947 459.452,275.447 451.5,277C 320.833,277.667 190.167,277.667 59.5,277C 44.8025,272.447 39.3025,262.614 43,247.5C 46.2825,240.124 51.7825,235.457 59.5,233.5 Z"/></g>
<g><path style="opacity:0.985" fill="#000000" d="M 56.5,383.5 C 125.167,383.333 193.834,383.5 262.5,384C 274.672,389.845 279.172,399.345 276,412.5C 273.305,419.863 268.138,424.363 260.5,426C 193.167,426.667 125.833,426.667 58.5,426C 47.9661,422.8 42.2995,415.633 41.5,404.5C 42.3597,394.417 47.3597,387.417 56.5,383.5 Z"/></g>
</svg>
