<?xml version="1.0" encoding="UTF-8"?>
<!DOCTYPE svg PUBLIC "-//W3C//DTD SVG 1.1//EN" "http://www.w3.org/Graphics/SVG/1.1/DTD/svg11.dtd">
<svg xmlns="http://www.w3.org/2000/svg" version="1.1" width="512px" height="512px" style="shape-rendering:geometricPrecision; text-rendering:geometricPrecision; image-rendering:optimizeQuality; fill-rule:evenodd; clip-rule:evenodd" xmlns:xlink="http://www.w3.org/1999/xlink">
<g><path style="opacity:0.998" fill="#53bec0" d="M 232.5,-0.5 C 240.167,-0.5 247.833,-0.5 255.5,-0.5C 170.5,85.1667 85.1667,170.5 -0.5,255.5C -0.5,247.833 -0.5,240.167 -0.5,232.5C 0.166667,229.5 0.833333,226.5 1.5,223.5C 75.8822,150.118 149.549,76.118 222.5,1.5C 225.941,0.903456 229.275,0.236789 232.5,-0.5 Z"/></g>
<g><path style="opacity:0.999" fill="#56bcc2" d="M 255.5,-0.5 C 261.833,-0.5 268.167,-0.5 274.5,-0.5C 274.611,0.117425 274.944,0.617425 275.5,1C 184,92.5 92.5,184 1,275.5C 0.517215,276.448 0.350549,277.448 0.5,278.5C 0.166667,278.5 -0.166667,278.5 -0.5,278.5C -0.5,270.833 -0.5,263.167 -0.5,255.5C 85.1667,170.5 170.5,85.1667 255.5,-0.5 Z"/></g>
<g><path style="opacity:0.998" fill="#58bcc3" d="M 274.5,-0.5 C 275.833,-0.5 277.167,-0.5 278.5,-0.5C 284.7,0.570561 291.033,1.57056 297.5,2.5C 199.14,101.194 100.806,199.86 2.5,298.5C 1.34077,291.891 0.674103,285.224 0.5,278.5C 0.350549,277.448 0.517215,276.448 1,275.5C 92.5,184 184,92.5 275.5,1C 274.944,0.617425 274.611,0.117425 274.5,-0.5 Z"/></g>
<g><path style="opacity:0.995" fill="#4ebfbd" d="M 222.5,1.5 C 149.549,76.118 75.8822,150.118 1.5,223.5C 3.77134,199.742 9.77134,177.076 19.5,155.5C 65.1667,110.5 110.5,65.1667 155.5,19.5C 176.768,9.93125 199.101,3.93125 222.5,1.5 Z"/></g>
<g><path style="opacity:0.999" fill="#5cbac6" d="M 297.5,2.5 C 306.92,4.11731 316.254,6.11731 325.5,8.5C 325.631,9.23891 325.464,9.90558 325,10.5C 219.632,115.701 114.465,221.035 9.5,326.5C 6.25197,317.508 3.91864,308.175 2.5,298.5C 100.806,199.86 199.14,101.194 297.5,2.5 Z"/></g>
<g><path style="opacity:0.993" fill="#60b9c9" d="M 325.5,8.5 C 336.614,11.5348 347.28,15.5348 357.5,20.5C 328.45,50.5502 298.784,79.8835 268.5,108.5C 255.395,100.036 245.228,102.703 238,116.5C 237.501,120.152 237.335,123.818 237.5,127.5C 194.337,137.163 167.503,163.497 157,206.5C 155.869,212.112 155.369,217.779 155.5,223.5C 110.5,268.167 65.5,312.833 20.5,357.5C 15.4681,347.743 11.8014,337.409 9.5,326.5C 114.465,221.035 219.632,115.701 325,10.5C 325.464,9.90558 325.631,9.23891 325.5,8.5 Z"/></g>
<g><path style="opacity:0.995" fill="#66b7cc" d="M 357.5,20.5 C 369.226,24.8622 380.226,30.5288 390.5,37.5C 359.919,69.5828 328.752,101.249 297,132.5C 296.536,133.094 296.369,133.761 296.5,134.5C 289.16,131.165 281.494,128.832 273.5,127.5C 274.62,120.356 272.953,114.023 268.5,108.5C 298.784,79.8835 328.45,50.5502 357.5,20.5 Z"/></g>
<g><path style="opacity:0.993" fill="#4ac1ba" d="M 155.5,19.5 C 110.5,65.1667 65.1667,110.5 19.5,155.5C 43.6752,99.4876 82.6752,56.9876 136.5,28C 142.619,24.6058 148.952,21.7725 155.5,19.5 Z"/></g>
<g><path style="opacity:0.998" fill="#6ab5cf" d="M 390.5,37.5 C 393.709,39.2651 396.709,41.2651 399.5,43.5C 367.5,74.8333 335.833,106.5 304.5,138.5C 301.833,137.167 299.167,135.833 296.5,134.5C 296.369,133.761 296.536,133.094 297,132.5C 328.752,101.249 359.919,69.5828 390.5,37.5 Z"/></g>
<g><path style="opacity:0.995" fill="#6db4d1" d="M 399.5,43.5 C 409.082,49.7863 418.082,56.7863 426.5,64.5C 393.883,95.45 361.883,127.117 330.5,159.5C 323.01,151.083 314.344,144.083 304.5,138.5C 335.833,106.5 367.5,74.8333 399.5,43.5 Z"/></g>
<g><path style="opacity:0.998" fill="#71b3d3" d="M 426.5,64.5 C 429.5,66.8333 432.167,69.5 434.5,72.5C 434.649,73.552 434.483,74.552 434,75.5C 402.3,107.706 370.466,139.039 338.5,169.5C 335.844,166.206 333.178,162.873 330.5,159.5C 361.883,127.117 393.883,95.45 426.5,64.5 Z"/></g>
<g><path style="opacity:0.995" fill="#74b1d5" d="M 434.5,72.5 C 440.87,77.8695 446.537,83.8695 451.5,90.5C 417.751,122.748 384.417,155.582 351.5,189C 350.906,189.464 350.239,189.631 349.5,189.5C 345.903,182.875 342.236,176.208 338.5,169.5C 370.466,139.039 402.3,107.706 434,75.5C 434.483,74.552 434.649,73.552 434.5,72.5 Z"/></g>
<g><path style="opacity:0.996" fill="#79b0d8" d="M 451.5,90.5 C 458.906,98.9128 465.573,107.913 471.5,117.5C 433.535,155.965 395.368,194.299 357,232.5C 356.817,229.635 356.317,226.969 355.5,224.5C 355.304,212.519 353.304,200.852 349.5,189.5C 350.239,189.631 350.906,189.464 351.5,189C 384.417,155.582 417.751,122.748 451.5,90.5 Z"/></g>
<g><path style="opacity:0.997" fill="#7dafdb" d="M 471.5,117.5 C 473.89,120.566 475.89,123.9 477.5,127.5C 477.649,128.552 477.483,129.552 477,130.5C 437,170.5 397,210.5 357,250.5C 356.79,252.058 356.29,253.391 355.5,254.5C 355.5,244.5 355.5,234.5 355.5,224.5C 356.317,226.969 356.817,229.635 357,232.5C 395.368,194.299 433.535,155.965 471.5,117.5 Z"/></g>
<g><path style="opacity:0.994" fill="#80addd" d="M 477.5,127.5 C 483.816,137.133 488.816,147.466 492.5,158.5C 446.806,204.527 401.14,250.527 355.5,296.5C 355.5,282.5 355.5,268.5 355.5,254.5C 356.29,253.391 356.79,252.058 357,250.5C 397,210.5 437,170.5 477,130.5C 477.483,129.552 477.649,128.552 477.5,127.5 Z"/></g>
<g><path style="opacity:0.997" fill="#84acdf" d="M 492.5,158.5 C 494.871,163.265 496.871,168.265 498.5,173.5C 452.083,218.416 406.083,263.916 360.5,310C 359.906,310.464 359.239,310.631 358.5,310.5C 356.994,305.97 355.994,301.303 355.5,296.5C 401.14,250.527 446.806,204.527 492.5,158.5 Z"/></g>
<g><path style="opacity:0.997" fill="#87abe1" d="M 498.5,173.5 C 501.121,180.649 503.121,187.982 504.5,195.5C 504.657,196.873 504.49,198.207 504,199.5C 459.632,244.035 415.132,288.368 370.5,332.5C 364.965,326.104 360.965,318.771 358.5,310.5C 359.239,310.631 359.906,310.464 360.5,310C 406.083,263.916 452.083,218.416 498.5,173.5 Z"/></g>
<g><path style="opacity:0.996" fill="#8ca9e4" d="M 504.5,195.5 C 507.804,207.661 510.138,219.995 511.5,232.5C 511.5,234.833 511.5,237.167 511.5,239.5C 470.883,278.45 430.883,318.117 391.5,358.5C 384.031,350.239 377.031,341.572 370.5,332.5C 415.132,288.368 459.632,244.035 504,199.5C 504.49,198.207 504.657,196.873 504.5,195.5 Z"/></g>
<g><path style="opacity:0.995" fill="#66b7cc" d="M 155.5,223.5 C 155.5,240.5 155.5,257.5 155.5,274.5C 116.701,312.799 78.0346,351.299 39.5,390C 38.9056,390.464 38.2389,390.631 37.5,390.5C 30.5288,380.226 24.8622,369.226 20.5,357.5C 65.5,312.833 110.5,268.167 155.5,223.5 Z"/></g>
<g><path style="opacity:0.998" fill="#92a7e9" d="M 511.5,252.5 C 511.5,261.167 511.5,269.833 511.5,278.5C 510.505,284.404 509.505,290.404 508.5,296.5C 438.167,367.5 367.5,438.167 296.5,508.5C 290.378,509.507 284.378,510.507 278.5,511.5C 269.833,511.5 261.167,511.5 252.5,511.5C 338.5,424.833 424.833,338.5 511.5,252.5 Z"/></g>
<g><path style="opacity:0.996" fill="#6ab5cf" d="M 155.5,274.5 C 155.5,279.5 155.5,284.5 155.5,289.5C 154.883,289.389 154.383,289.056 154,288.5C 116.965,325.368 80.1319,362.368 43.5,399.5C 41.2651,396.709 39.2651,393.709 37.5,390.5C 38.2389,390.631 38.9056,390.464 39.5,390C 78.0346,351.299 116.701,312.799 155.5,274.5 Z"/></g>
<g><path style="opacity:0.991" fill="#6db4d1" d="M 155.5,289.5 C 155.711,305.034 151.211,319.034 142,331.5C 135.333,339.5 128.667,347.5 122,355.5C 118.677,359.772 117.844,364.439 119.5,369.5C 101.535,387.965 83.3684,406.299 65,424.5C 64.5357,425.094 64.369,425.761 64.5,426.5C 56.7863,418.082 49.7863,409.082 43.5,399.5C 80.1319,362.368 116.965,325.368 154,288.5C 154.383,289.056 154.883,289.389 155.5,289.5 Z"/></g>
<g><path style="opacity:0.996" fill="#97a5eb" d="M 508.5,296.5 C 505.4,316.465 500.067,335.798 492.5,354.5C 491.883,354.389 491.383,354.056 491,353.5C 444.632,399.701 398.465,446.035 352.5,492.5C 334.686,500.433 316.019,505.767 296.5,508.5C 367.5,438.167 438.167,367.5 508.5,296.5 Z"/></g>
<g><path style="opacity:0.991" fill="#9ba3ee" d="M 492.5,354.5 C 463.991,419.01 417.324,465.01 352.5,492.5C 398.465,446.035 444.632,399.701 491,353.5C 491.383,354.056 491.883,354.389 492.5,354.5 Z"/></g>
<g><path style="opacity:0.998" fill="#8fa7e6" d="M 511.5,239.5 C 511.5,243.833 511.5,248.167 511.5,252.5C 424.833,338.5 338.5,424.833 252.5,511.5C 248.167,511.5 243.833,511.5 239.5,511.5C 282.916,466.584 326.916,422.084 371.5,378C 370.944,377.617 370.611,377.117 370.5,376.5C 376.489,376.802 382.155,375.636 387.5,373C 392.389,369.177 393.723,364.344 391.5,358.5C 430.883,318.117 470.883,278.45 511.5,239.5 Z"/></g>
<g><path style="opacity:0.988" fill="#73b2d5" d="M 119.5,369.5 C 122.994,373.247 127.328,375.414 132.5,376C 142.828,376.5 153.161,376.666 163.5,376.5C 139.167,401.5 114.5,426.167 89.5,450.5C 80.5335,443.201 72.2001,435.201 64.5,426.5C 64.369,425.761 64.5357,425.094 65,424.5C 83.3684,406.299 101.535,387.965 119.5,369.5 Z"/></g>
<g><path style="opacity:0.992" fill="#79b0d8" d="M 163.5,376.5 C 178.167,376.5 192.833,376.5 207.5,376.5C 208.609,377.29 209.942,377.79 211.5,378C 179.751,409.245 148.751,440.745 118.5,472.5C 108.242,465.903 98.5749,458.57 89.5,450.5C 114.5,426.167 139.167,401.5 163.5,376.5 Z"/></g>
<g><path style="opacity:0.996" fill="#7dafdb" d="M 207.5,376.5 C 212.167,376.5 216.833,376.5 221.5,376.5C 221.993,378.806 222.326,381.139 222.5,383.5C 222.631,384.239 222.464,384.906 222,385.5C 190.965,416.368 160.132,447.368 129.5,478.5C 125.7,476.766 122.034,474.766 118.5,472.5C 148.751,440.745 179.751,409.245 211.5,378C 209.942,377.79 208.609,377.29 207.5,376.5 Z"/></g>
<g><path style="opacity:0.99" fill="#87abe1" d="M 317.5,376.5 C 319.969,377.317 322.635,377.817 325.5,378C 282.886,421.115 239.886,463.615 196.5,505.5C 188.773,503.369 181.106,501.036 173.5,498.5C 202.415,468.084 231.915,438.084 262,408.5C 262.464,407.906 262.631,407.239 262.5,406.5C 277.794,402.204 286.794,392.204 289.5,376.5C 298.833,376.5 308.167,376.5 317.5,376.5 Z"/></g>
<g><path style="opacity:0.994" fill="#8ca9e4" d="M 317.5,376.5 C 335.167,376.5 352.833,376.5 370.5,376.5C 370.611,377.117 370.944,377.617 371.5,378C 326.916,422.084 282.916,466.584 239.5,511.5C 237.167,511.5 234.833,511.5 232.5,511.5C 220.591,509.737 208.591,507.737 196.5,505.5C 239.886,463.615 282.886,421.115 325.5,378C 322.635,377.817 319.969,377.317 317.5,376.5 Z"/></g>
<g><path style="opacity:0.995" fill="#80addd" d="M 222.5,383.5 C 226.801,393.801 234.135,401.135 244.5,405.5C 216.55,435.117 187.884,464.117 158.5,492.5C 148.133,489.149 138.467,484.482 129.5,478.5C 160.132,447.368 190.965,416.368 222,385.5C 222.464,384.906 222.631,384.239 222.5,383.5 Z"/></g>
<g><path style="opacity:0.994" fill="#84acdf" d="M 244.5,405.5 C 250.415,407.604 256.415,407.938 262.5,406.5C 262.631,407.239 262.464,407.906 262,408.5C 231.915,438.084 202.415,468.084 173.5,498.5C 168.265,496.871 163.265,494.871 158.5,492.5C 187.884,464.117 216.55,435.117 244.5,405.5 Z"/></g>
</svg>
