<?xml version="1.0" encoding="UTF-8"?>
<!DOCTYPE svg PUBLIC "-//W3C//DTD SVG 1.1//EN" "http://www.w3.org/Graphics/SVG/1.1/DTD/svg11.dtd">
<svg xmlns="http://www.w3.org/2000/svg" version="1.1" width="1200px" height="900px" style="shape-rendering:geometricPrecision; text-rendering:geometricPrecision; image-rendering:optimizeQuality; fill-rule:evenodd; clip-rule:evenodd" xmlns:xlink="http://www.w3.org/1999/xlink">
<g><path style="opacity:1" fill="#fefefe" d="M -0.5,-0.5 C 399.5,-0.5 799.5,-0.5 1199.5,-0.5C 1199.5,299.5 1199.5,599.5 1199.5,899.5C 799.5,899.5 399.5,899.5 -0.5,899.5C -0.5,599.5 -0.5,299.5 -0.5,-0.5 Z"/></g>
<g><path style="opacity:1" fill="#14b4e1" d="M 763.5,371.5 C 771.984,372.493 780.651,372.826 789.5,372.5C 790.551,373.222 791.218,374.222 791.5,375.5C 788.763,375.599 786.096,375.265 783.5,374.5C 775.417,374.684 767.417,374.684 759.5,374.5C 761.345,372.464 761.845,370.13 761,367.5C 760.667,367.833 760.333,368.167 760,368.5C 759.189,357.12 759.355,345.787 760.5,334.5C 754.735,333.206 749.069,333.539 743.5,335.5C 743.5,335.167 743.5,334.833 743.5,334.5C 745.799,333.222 748.132,331.889 750.5,330.5C 753.699,331.799 756.865,331.799 760,330.5C 760.308,331.308 760.808,331.975 761.5,332.5C 762.167,345.66 762.833,358.66 763.5,371.5 Z"/></g>
<g><path style="opacity:1" fill="#90ddef" d="M 735.5,343.5 C 733.881,347.774 731.214,351.107 727.5,353.5C 729.871,349.81 732.538,346.477 735.5,343.5 Z"/></g>
<g><path style="opacity:1" fill="#4dbee0" d="M 763.5,332.5 C 763.5,333.5 763.5,334.5 763.5,335.5C 763.5,347.5 763.5,359.5 763.5,371.5C 762.833,358.66 762.167,345.66 761.5,332.5C 760.808,331.975 760.308,331.308 760,330.5C 756.865,331.799 753.699,331.799 750.5,330.5C 748.132,331.889 745.799,333.222 743.5,334.5C 747.602,329.409 752.936,327.576 759.5,329C 761.324,329.66 762.657,330.827 763.5,332.5 Z"/></g>
<g><path style="opacity:1" fill="#8adae7" d="M 763.5,335.5 C 764.495,347.322 764.828,359.322 764.5,371.5C 772.833,371.5 781.167,371.5 789.5,371.5C 789.5,371.833 789.5,372.167 789.5,372.5C 780.651,372.826 771.984,372.493 763.5,371.5C 763.5,359.5 763.5,347.5 763.5,335.5 Z"/></g>
<g><path style="opacity:1" fill="#d8fefe" d="M 763.5,332.5 C 764.117,332.611 764.617,332.944 765,333.5C 765.5,345.829 765.667,358.162 765.5,370.5C 773.684,370.174 781.684,370.508 789.5,371.5C 781.167,371.5 772.833,371.5 764.5,371.5C 764.828,359.322 764.495,347.322 763.5,335.5C 763.5,334.5 763.5,333.5 763.5,332.5 Z"/></g>
<g><path style="opacity:1" fill="#8added" d="M 722.5,359.5 C 722.586,360.496 722.252,361.329 721.5,362C 718.671,363.356 716.004,364.856 713.5,366.5C 715.617,363.051 718.617,360.718 722.5,359.5 Z"/></g>
<g><path style="opacity:1" fill="#03baf3" d="M 783.5,374.5 C 786.096,375.265 788.763,375.599 791.5,375.5C 791.636,391.437 791.636,407.437 791.5,423.5C 781.952,425.157 772.285,426.157 762.5,426.5C 762.5,428.167 762.5,429.833 762.5,431.5C 762.812,486.519 762.479,541.519 761.5,596.5C 759.5,596.5 757.5,596.5 755.5,596.5C 743.678,595.505 731.678,595.172 719.5,595.5C 719.5,594.5 719.5,593.5 719.5,592.5C 730.167,592.167 730.167,591.833 719.5,591.5C 719.5,522.167 719.5,452.833 719.5,383.5C 718.5,383.5 717.5,383.5 716.5,383.5C 716.988,380.289 716.321,377.456 714.5,375C 715.595,373.325 717.095,372.158 719,371.5C 719.219,370.062 719.719,368.729 720.5,367.5C 721.48,370.086 721.813,372.753 721.5,375.5C 726.167,375.5 730.833,375.5 735.5,375.5C 735.5,383.5 735.5,391.5 735.5,399.5C 751.5,399.5 767.5,399.5 783.5,399.5C 783.5,391.167 783.5,382.833 783.5,374.5 Z"/></g>
<g><path style="opacity:1" fill="#b0f4fd" d="M 819.5,371.5 C 834.995,370.339 850.661,370.172 866.5,371C 869.238,372.312 870.572,374.478 870.5,377.5C 869.461,375.469 867.795,374.136 865.5,373.5C 865.5,373.167 865.5,372.833 865.5,372.5C 850.342,371.504 835.009,371.17 819.5,371.5 Z"/></g>
<g><path style="opacity:1" fill="#7583a2" d="M 191.5,372.5 C 223.664,371.336 255.997,371.169 288.5,372C 290.058,372.21 291.391,372.71 292.5,373.5C 288.19,372.92 283.857,372.586 279.5,372.5C 250.167,372.5 220.833,372.5 191.5,372.5 Z"/></g>
<g><path style="opacity:1" fill="#98a5b9" d="M 439.5,372.5 C 416.788,372.188 394.121,372.521 371.5,373.5C 371.611,372.883 371.944,372.383 372.5,372C 395.004,371.17 417.337,371.337 439.5,372.5 Z"/></g>
<g><path style="opacity:1" fill="#728498" d="M 562.5,373.5 C 546.5,372.167 530.5,372.167 514.5,373.5C 514.611,372.883 514.944,372.383 515.5,372C 530.833,371.333 546.167,371.333 561.5,372C 562.056,372.383 562.389,372.883 562.5,373.5 Z"/></g>
<g><path style="opacity:1" fill="#72809d" d="M 649.5,372.5 C 634.452,372.199 619.452,372.532 604.5,373.5C 604.611,372.883 604.944,372.383 605.5,372C 620.339,371.172 635.006,371.339 649.5,372.5 Z"/></g>
<g><path style="opacity:1" fill="#56c0db" d="M 703.5,369.5 C 703.5,370.5 703.5,371.5 703.5,372.5C 695.303,372.717 687.303,373.717 679.5,375.5C 679.511,373.983 680.177,372.816 681.5,372C 688.932,371.78 696.265,370.947 703.5,369.5 Z"/></g>
<g><path style="opacity:1" fill="#5ac7db" d="M 819.5,371.5 C 835.009,371.17 850.342,371.504 865.5,372.5C 850.496,372.333 835.496,372.5 820.5,373C 819.756,374.039 818.756,374.539 817.5,374.5C 818.167,373.5 818.833,372.5 819.5,371.5 Z"/></g>
<g><path style="opacity:1" fill="#a5e8f5" d="M 897.5,370.5 C 905.656,369.343 913.99,369.177 922.5,370C 925.174,370.67 927.507,371.837 929.5,373.5C 926.279,372.495 922.946,371.661 919.5,371C 912.174,370.5 904.841,370.334 897.5,370.5 Z"/></g>
<g><path style="opacity:1" fill="#c5f7fa" d="M 983.5,369.5 C 992.482,367.9 1001.48,368.4 1010.5,371C 1012.6,371.737 1014.26,372.903 1015.5,374.5C 1010.33,372.584 1004.99,371.251 999.5,370.5C 994.36,369.512 989.026,369.179 983.5,369.5 Z"/></g>
<g><path style="opacity:1" fill="#9fb4cf" d="M 439.5,372.5 C 442.85,372.335 446.183,372.502 449.5,373C 451.066,373.608 452.4,374.442 453.5,375.5C 448.766,374.334 444.1,373.334 439.5,372.5 Z"/></g>
<g><path style="opacity:1" fill="#69cae1" d="M 983.5,369.5 C 989.026,369.179 994.36,369.512 999.5,370.5C 993.158,370.334 986.825,370.5 980.5,371C 979.833,371.667 979.167,372.333 978.5,373C 974.83,373.548 971.163,374.048 967.5,374.5C 972.538,372.203 977.871,370.536 983.5,369.5 Z"/></g>
<g><path style="opacity:1" fill="#04b9f2" d="M 999.5,370.5 C 1004.99,371.251 1010.33,372.584 1015.5,374.5C 1016.21,375.404 1017.21,375.737 1018.5,375.5C 1020.97,376.884 1022.64,378.884 1023.5,381.5C 1028.53,382.77 1032.7,385.436 1036,389.5C 1038.6,393.858 1041.1,398.192 1043.5,402.5C 1044.59,406.76 1045.25,411.094 1045.5,415.5C 1043.63,413.365 1042.96,410.698 1043.5,407.5C 1042.17,407.5 1040.83,407.5 1039.5,407.5C 1040.85,410.835 1041.52,414.335 1041.5,418C 1039.54,476.461 1038.88,534.961 1039.5,593.5C 1026.15,593.334 1012.82,593.667 999.5,594.5C 998.005,594.585 997.005,593.919 996.5,592.5C 995.315,540.879 995.315,489.213 996.5,437.5C 995.272,434.987 993.605,432.987 991.5,431.5C 990.833,431.5 990.167,431.5 989.5,431.5C 986.325,426.25 981.658,424.25 975.5,425.5C 972.41,425.522 969.743,426.188 967.5,427.5C 962.339,429.818 959.673,433.818 959.5,439.5C 959.167,439.5 958.833,439.5 958.5,439.5C 957.501,487.33 957.168,535.33 957.5,583.5C 956.5,583.5 955.5,583.5 954.5,583.5C 954.833,535.495 954.5,487.495 953.5,439.5C 952.18,491.525 952.18,543.525 953.5,595.5C 939.5,595.5 925.5,595.5 911.5,595.5C 911.667,556.832 911.5,518.165 911,479.5C 910.667,516.833 910.333,554.167 910,591.5C 909.583,592.756 908.75,593.423 907.5,593.5C 906.586,590.272 906.253,586.939 906.5,583.5C 907.5,583.5 908.5,583.5 909.5,583.5C 910.162,535.155 909.495,487.155 907.5,439.5C 906.908,436.873 906.575,434.206 906.5,431.5C 904.64,432.071 902.973,432.071 901.5,431.5C 901.167,431.5 900.833,431.5 900.5,431.5C 900.249,429.83 899.582,428.33 898.5,427C 900.167,426 901.833,425 903.5,424C 895.5,423.333 887.5,423.333 879.5,424C 877.167,425.167 874.833,426.333 872.5,427.5C 871.571,428.689 871.238,430.022 871.5,431.5C 871.371,433.216 871.038,434.883 870.5,436.5C 869.883,436.611 869.383,436.944 869,437.5C 868.667,488.833 868.333,540.167 868,591.5C 866.823,593.176 865.323,594.509 863.5,595.5C 850.006,596.167 836.673,596.833 823.5,597.5C 820.687,597.975 818.687,596.975 817.5,594.5C 818.376,594.631 819.043,594.298 819.5,593.5C 818.837,526.205 818.17,458.871 817.5,391.5C 816.833,386.683 816.166,382.017 815.5,377.5C 815.5,376.833 815.5,376.167 815.5,375.5C 815.833,375.5 816.167,375.5 816.5,375.5C 818.827,375.753 820.827,375.086 822.5,373.5C 836.833,374.817 851.167,374.817 865.5,373.5C 867.795,374.136 869.461,375.469 870.5,377.5C 870.205,379.735 870.539,381.735 871.5,383.5C 873.484,383.617 875.15,382.95 876.5,381.5C 878.367,384.229 879.367,383.896 879.5,380.5C 882.91,380.616 884.244,378.95 883.5,375.5C 890.146,374.495 896.813,374.495 903.5,375.5C 903.5,374.5 903.5,373.5 903.5,372.5C 908.833,372.5 914.167,372.5 919.5,372.5C 919.5,373.5 919.5,374.5 919.5,375.5C 922.127,374.908 924.794,374.575 927.5,374.5C 927.5,375.5 927.5,376.5 927.5,377.5C 931.319,377.605 934.986,378.438 938.5,380C 939.489,382.158 941.156,383.325 943.5,383.5C 943.5,384.5 943.5,385.5 943.5,386.5C 947.163,387.112 950.83,387.279 954.5,387C 956.721,383.06 960.054,380.893 964.5,380.5C 964.5,379.5 964.5,378.5 964.5,377.5C 966.179,377.715 967.179,377.048 967.5,375.5C 967.5,375.167 967.5,374.833 967.5,374.5C 971.163,374.048 974.83,373.548 978.5,373C 979.167,372.333 979.833,371.667 980.5,371C 986.825,370.5 993.158,370.334 999.5,370.5 Z"/></g>
<g><path style="opacity:1" fill="#7d8ea8" d="M 650.5,372.5 C 652.404,372.738 653.738,373.738 654.5,375.5C 654.167,375.5 653.833,375.5 653.5,375.5C 653.167,375.5 652.833,375.5 652.5,375.5C 651.833,374.5 651.167,373.5 650.5,372.5 Z"/></g>
<g><path style="opacity:1" fill="#14b2dc" d="M 865.5,372.5 C 865.5,372.833 865.5,373.167 865.5,373.5C 851.167,374.817 836.833,374.817 822.5,373.5C 820.827,375.086 818.827,375.753 816.5,375.5C 816.5,374.833 816.833,374.5 817.5,374.5C 818.756,374.539 819.756,374.039 820.5,373C 835.496,372.5 850.496,372.333 865.5,372.5 Z"/></g>
<g><path style="opacity:1" fill="#052a68" d="M 191.5,372.5 C 220.833,372.5 250.167,372.5 279.5,372.5C 279.5,372.833 279.5,373.167 279.5,373.5C 255.491,373.167 231.491,373.5 207.5,374.5C 210.086,375.48 212.753,375.813 215.5,375.5C 215.5,380.833 215.5,386.167 215.5,391.5C 212.833,391.5 210.167,391.5 207.5,391.5C 207.5,394.167 207.5,396.833 207.5,399.5C 201.167,399.5 194.833,399.5 188.5,399.5C 188.5,460.833 188.5,522.167 188.5,583.5C 189.5,583.5 190.5,583.5 191.5,583.5C 191.927,586.788 191.26,589.788 189.5,592.5C 189.863,593.183 190.196,593.85 190.5,594.5C 189.833,594.5 189.167,594.5 188.5,594.5C 187.843,526.694 187.177,459.027 186.5,391.5C 186.267,386.105 186.6,380.772 187.5,375.5C 188.236,373.771 189.57,372.771 191.5,372.5 Z"/></g>
<g><path style="opacity:1" fill="#0a2f6a" d="M 279.5,372.5 C 283.857,372.586 288.19,372.92 292.5,373.5C 299.759,375.343 306.092,378.677 311.5,383.5C 308.753,383.813 306.086,383.48 303.5,382.5C 303.709,381.914 304.043,381.414 304.5,381C 301.829,379.097 298.829,378.264 295.5,378.5C 295.5,380.167 295.5,381.833 295.5,383.5C 290.167,383.5 284.833,383.5 279.5,383.5C 279.5,380.833 279.5,378.167 279.5,375.5C 276.813,375.664 274.146,375.497 271.5,375C 274.365,374.817 277.031,374.317 279.5,373.5C 279.5,373.167 279.5,372.833 279.5,372.5 Z"/></g>
<g><path style="opacity:1" fill="#2cb4de" d="M 897.5,370.5 C 904.841,370.334 912.174,370.5 919.5,371C 922.946,371.661 926.279,372.495 929.5,373.5C 932.523,375.678 935.856,377.345 939.5,378.5C 940.916,380.179 942.25,381.846 943.5,383.5C 941.156,383.325 939.489,382.158 938.5,380C 934.986,378.438 931.319,377.605 927.5,377.5C 927.5,376.5 927.5,375.5 927.5,374.5C 924.794,374.575 922.127,374.908 919.5,375.5C 919.5,374.5 919.5,373.5 919.5,372.5C 914.167,372.5 908.833,372.5 903.5,372.5C 903.5,373.5 903.5,374.5 903.5,375.5C 896.813,374.495 890.146,374.495 883.5,375.5C 884.244,378.95 882.91,380.616 879.5,380.5C 879.367,383.896 878.367,384.229 876.5,381.5C 875.15,382.95 873.484,383.617 871.5,383.5C 873.5,381.5 875.5,379.5 877.5,377.5C 881.989,375.329 886.656,373.329 891.5,371.5C 893.453,370.844 895.453,370.511 897.5,370.5 Z"/></g>
<g><path style="opacity:1" fill="#052d71" d="M 279.5,373.5 C 277.031,374.317 274.365,374.817 271.5,375C 274.146,375.497 276.813,375.664 279.5,375.5C 279.5,378.167 279.5,380.833 279.5,383.5C 284.833,383.5 290.167,383.5 295.5,383.5C 295.5,381.833 295.5,380.167 295.5,378.5C 298.829,378.264 301.829,379.097 304.5,381C 304.043,381.414 303.709,381.914 303.5,382.5C 306.086,383.48 308.753,383.813 311.5,383.5C 311.534,388.951 314.2,391.618 319.5,391.5C 319.187,394.247 319.52,396.914 320.5,399.5C 321.799,398.91 322.632,397.91 323,396.5C 324.237,400.06 324.737,403.727 324.5,407.5C 322.833,407.5 321.167,407.5 319.5,407.5C 319.5,410.167 319.5,412.833 319.5,415.5C 322.167,415.5 324.833,415.5 327.5,415.5C 328.617,439.48 328.783,463.48 328,487.5C 327.762,491.789 326.595,495.789 324.5,499.5C 322.997,500.052 321.331,500.052 319.5,499.5C 319.5,503.5 319.5,507.5 319.5,511.5C 319.5,511.833 319.5,512.167 319.5,512.5C 317.738,512.643 316.071,512.309 314.5,511.5C 312.907,518.049 311.907,518.049 311.5,511.5C 309.833,511.5 308.167,511.5 306.5,511.5C 306.5,512.5 306.5,513.5 306.5,514.5C 305.5,514.5 304.5,514.5 303.5,514.5C 303.5,516.167 303.5,517.833 303.5,519.5C 295.5,519.5 287.5,519.5 279.5,519.5C 279.5,522.167 279.5,524.833 279.5,527.5C 271.865,528.654 260.865,528.82 246.5,528C 247.444,525.281 247.777,522.448 247.5,519.5C 244.833,519.5 242.167,519.5 239.5,519.5C 239.5,524.833 239.5,530.167 239.5,535.5C 239.5,554.167 239.5,572.833 239.5,591.5C 236.656,591.343 234.989,592.676 234.5,595.5C 228.167,595.5 221.833,595.5 215.5,595.5C 215.5,594.5 215.5,593.5 215.5,592.5C 211.476,592.497 207.476,592.164 203.5,591.5C 202.167,591.833 200.833,592.167 199.5,592.5C 202.167,593.167 204.833,593.833 207.5,594.5C 202.208,595.495 196.875,595.828 191.5,595.5C 191.5,594.833 191.167,594.5 190.5,594.5C 190.196,593.85 189.863,593.183 189.5,592.5C 191.26,589.788 191.927,586.788 191.5,583.5C 190.5,583.5 189.5,583.5 188.5,583.5C 188.5,522.167 188.5,460.833 188.5,399.5C 194.833,399.5 201.167,399.5 207.5,399.5C 207.5,396.833 207.5,394.167 207.5,391.5C 210.167,391.5 212.833,391.5 215.5,391.5C 215.5,386.167 215.5,380.833 215.5,375.5C 212.753,375.813 210.086,375.48 207.5,374.5C 231.491,373.5 255.491,373.167 279.5,373.5 Z"/></g>
<g><path style="opacity:1" fill="#072c6c" d="M 535.5,375.5 C 535.5,378.167 535.5,380.833 535.5,383.5C 532.833,383.5 530.167,383.5 527.5,383.5C 527.5,386.167 527.5,388.833 527.5,391.5C 524.167,391.5 520.833,391.5 517.5,391.5C 517.522,395.593 518.189,399.593 519.5,403.5C 518.251,415.443 517.585,427.443 517.5,439.5C 517.668,452.886 518.334,466.219 519.5,479.5C 522.167,479.5 524.833,479.5 527.5,479.5C 527.5,482.167 527.5,484.833 527.5,487.5C 523.993,488.006 520.826,487.34 518,485.5C 517.667,481.167 517.333,476.833 517,472.5C 515.989,471.663 514.822,471.33 513.5,471.5C 513.935,479.008 515.269,486.341 517.5,493.5C 516.833,493.167 516.167,492.833 515.5,492.5C 513.341,487.023 512.007,481.356 511.5,475.5C 511.5,447.5 511.5,419.5 511.5,391.5C 512.5,391.5 513.5,391.5 514.5,391.5C 514.5,388.833 514.5,386.167 514.5,383.5C 517.575,383.749 518.242,382.415 516.5,379.5C 516.437,377.519 517.104,375.852 518.5,374.5C 524.104,375.454 529.771,375.788 535.5,375.5 Z"/></g>
<g><path style="opacity:1" fill="#04b9f1" d="M 783.5,374.5 C 783.5,382.833 783.5,391.167 783.5,399.5C 767.5,399.5 751.5,399.5 735.5,399.5C 735.5,391.5 735.5,383.5 735.5,375.5C 730.833,375.5 726.167,375.5 721.5,375.5C 721.813,372.753 721.48,370.086 720.5,367.5C 719.719,368.729 719.219,370.062 719,371.5C 717.095,372.158 715.595,373.325 714.5,375C 716.321,377.456 716.988,380.289 716.5,383.5C 717.5,383.5 718.5,383.5 719.5,383.5C 719.5,452.833 719.5,522.167 719.5,591.5C 730.167,591.833 730.167,592.167 719.5,592.5C 719.5,593.5 719.5,594.5 719.5,595.5C 731.678,595.172 743.678,595.505 755.5,596.5C 741.496,596.667 727.496,596.5 713.5,596C 712.756,594.961 711.756,594.461 710.5,594.5C 710.667,538.832 710.5,483.166 710,427.5C 699.78,427.012 689.613,426.012 679.5,424.5C 679.5,423.833 679.167,423.5 678.5,423.5C 678.5,407.5 678.5,391.5 678.5,375.5C 678.833,375.5 679.167,375.5 679.5,375.5C 687.303,373.717 695.303,372.717 703.5,372.5C 703.5,371.5 703.5,370.5 703.5,369.5C 706.726,368.511 710.06,367.511 713.5,366.5C 716.004,364.856 718.671,363.356 721.5,362C 722.252,361.329 722.586,360.496 722.5,359.5C 724.219,357.456 725.886,355.456 727.5,353.5C 731.214,351.107 733.881,347.774 735.5,343.5C 737.646,340.272 740.312,337.605 743.5,335.5C 749.069,333.539 754.735,333.206 760.5,334.5C 759.355,345.787 759.189,357.12 760,368.5C 760.333,368.167 760.667,367.833 761,367.5C 761.845,370.13 761.345,372.464 759.5,374.5C 767.417,374.684 775.417,374.684 783.5,374.5 Z"/></g>
<g><path style="opacity:1" fill="#8e9eb3" d="M 459.5,377.5 C 463.684,377.592 467.017,379.259 469.5,382.5C 465.948,381.209 462.614,379.542 459.5,377.5 Z"/></g>
<g><path style="opacity:1" fill="#e4fafa" d="M 1018.5,375.5 C 1022.49,376.65 1026.49,376.817 1030.5,376C 1031.44,378.381 1031.77,380.881 1031.5,383.5C 1038.19,382.696 1041.03,385.696 1040,392.5C 1041.33,391.167 1042.67,391.167 1044,392.5C 1042.72,396.729 1043.72,400.396 1047,403.5C 1048.74,407.311 1049.57,411.311 1049.5,415.5C 1049.17,415.5 1048.83,415.5 1048.5,415.5C 1048.17,415.5 1047.83,415.5 1047.5,415.5C 1047.56,410.656 1046.23,406.322 1043.5,402.5C 1041.1,398.192 1038.6,393.858 1036,389.5C 1032.7,385.436 1028.53,382.77 1023.5,381.5C 1022.64,378.884 1020.97,376.884 1018.5,375.5 Z"/></g>
<g><path style="opacity:1" fill="#9dedfb" d="M 870.5,377.5 C 871.268,378.263 871.768,379.263 872,380.5C 873.741,379.242 875.574,378.242 877.5,377.5C 875.5,379.5 873.5,381.5 871.5,383.5C 870.539,381.735 870.205,379.735 870.5,377.5 Z"/></g>
<g><path style="opacity:1" fill="#062c71" d="M 471.5,591.5 C 450.156,591.167 428.823,591.5 407.5,592.5C 415.479,593.332 423.479,593.832 431.5,594C 413.482,594.75 395.482,594.583 377.5,593.5C 375.716,593.107 374.05,592.441 372.5,591.5C 371.972,590.279 371.305,589.113 370.5,588C 370.833,587.667 371.167,587.333 371.5,587C 368.833,586 368.833,585 371.5,584C 370.207,583.51 368.873,583.343 367.5,583.5C 367.5,554.167 367.5,524.833 367.5,495.5C 362.167,495.5 356.833,495.5 351.5,495.5C 351.662,493.473 351.495,491.473 351,489.5C 349.997,491.935 349.497,491.602 349.5,488.5C 349.497,485.398 349.997,485.065 351,487.5C 351.703,484.287 351.536,481.121 350.5,478C 351.009,476.831 351.842,475.998 353,475.5C 355,478.167 357,478.167 359,475.5C 359.49,476.793 359.657,478.127 359.5,479.5C 362.167,479.5 364.833,479.5 367.5,479.5C 367.5,474.167 367.5,468.833 367.5,463.5C 365.712,463.785 364.045,463.452 362.5,462.5C 365.367,461.226 368.367,460.393 371.5,460C 371.968,458.178 372.301,456.011 372.5,453.5C 377.238,452.108 382.071,451.108 387,450.5C 389.974,450.75 392.641,451.75 395,453.5C 396.356,452.62 397.856,452.286 399.5,452.5C 399.5,453.5 399.5,454.5 399.5,455.5C 395.407,455.478 391.407,454.811 387.5,453.5C 383.713,454.995 379.713,455.662 375.5,455.5C 375.5,463.5 375.5,471.5 375.5,479.5C 394.167,479.5 412.833,479.5 431.5,479.5C 431.5,471.5 431.5,463.5 431.5,455.5C 434.167,455.5 436.833,455.5 439.5,455.5C 439.5,452.833 439.5,450.167 439.5,447.5C 442.167,447.5 444.833,447.5 447.5,447.5C 447.5,425.5 447.5,403.5 447.5,381.5C 452.666,381.75 458,381.75 463.5,381.5C 463.5,383.833 463.5,386.167 463.5,388.5C 466.088,388.457 468.254,387.457 470,385.5C 470.5,386.667 471.333,387.5 472.5,388C 471.54,391.73 471.207,395.563 471.5,399.5C 473.857,399.663 476.19,399.497 478.5,399C 474.475,397.428 474.642,396.261 479,395.5C 479.645,396.646 480.478,397.646 481.5,398.5C 479.573,406.632 478.906,414.965 479.5,423.5C 480.833,423.5 482.167,423.5 483.5,423.5C 482.809,430.27 481.475,436.937 479.5,443.5C 481.46,490.114 482.127,536.781 481.5,583.5C 482.5,583.5 483.5,583.5 484.5,583.5C 484.5,585.5 484.5,587.5 484.5,589.5C 480.392,587.942 476.059,587.276 471.5,587.5C 471.5,588.833 471.5,590.167 471.5,591.5 Z"/></g>
<g><path style="opacity:1" fill="#d0f7f6" d="M 939.5,378.5 C 943.798,379.676 947.798,381.342 951.5,383.5C 951.5,382.5 951.5,381.5 951.5,380.5C 953.216,380.371 954.883,380.038 956.5,379.5C 954.699,381.138 953.033,382.971 951.5,385C 948.668,385.326 946.001,384.826 943.5,383.5C 942.25,381.846 940.916,380.179 939.5,378.5 Z"/></g>
<g><path style="opacity:1" fill="#062c71" d="M 593.5,469.5 C 593.842,468.662 594.508,468.328 595.5,468.5C 598.537,466.814 599.87,467.814 599.5,471.5C 602.167,471.5 604.833,471.5 607.5,471.5C 607.5,474.167 607.5,476.833 607.5,479.5C 612.833,479.5 618.167,479.5 623.5,479.5C 623.5,463.5 623.5,447.5 623.5,431.5C 618.167,431.5 612.833,431.5 607.5,431.5C 607.5,420.833 607.5,410.167 607.5,399.5C 620.833,399.5 634.167,399.5 647.5,399.5C 647.417,450.54 647.584,501.54 648,552.5C 649.306,548.282 650.472,543.949 651.5,539.5C 650.204,514.216 649.537,488.883 649.5,463.5C 649.563,434.859 649.896,406.359 650.5,378C 646.455,374.583 647.121,373.75 652.5,375.5C 652.168,380.828 651.834,386.162 651.5,391.5C 652.128,439.662 652.794,487.662 653.5,535.5C 652.815,543.816 652.482,552.149 652.5,560.5C 652.5,560.833 652.5,561.167 652.5,561.5C 650.853,565.424 649.186,569.424 647.5,573.5C 644.365,576.808 641.365,580.308 638.5,584C 636.595,585.421 634.595,586.588 632.5,587.5C 630.824,586.817 630.157,585.483 630.5,583.5C 626.593,584.466 622.927,585.799 619.5,587.5C 619.833,584.5 618.5,583.167 615.5,583.5C 615.5,585.167 615.5,586.833 615.5,588.5C 616.978,588.238 618.311,588.571 619.5,589.5C 618.754,590.736 618.421,592.07 618.5,593.5C 616.633,593.045 614.8,592.378 613,591.5C 611.112,591.796 609.278,592.296 607.5,593C 608.5,593.333 609.5,593.667 610.5,594C 607.5,594.333 604.5,594.667 601.5,595C 579.33,595.168 557.33,595.668 535.5,596.5C 534.167,596.5 532.833,596.5 531.5,596.5C 531.822,594.525 531.822,592.858 531.5,591.5C 531.168,580.813 531.501,570.146 532.5,559.5C 534.159,580.792 535.159,580.792 535.5,559.5C 559.5,559.5 583.5,559.5 607.5,559.5C 607.5,554.167 607.5,548.833 607.5,543.5C 601.293,543.952 600.459,542.619 605,539.5C 605.333,539.833 605.667,540.167 606,540.5C 607.534,536.289 607.867,531.956 607,527.5C 606.178,530.117 605.678,532.784 605.5,535.5C 604.5,535.5 603.5,535.5 602.5,535.5C 602.517,532.08 602.683,528.746 603,525.5C 602.311,524.643 601.478,523.977 600.5,523.5C 599.232,524.428 597.899,524.595 596.5,524C 596.034,521.877 594.867,520.377 593,519.5C 587.344,521.518 581.511,522.018 575.5,521C 578.167,520.667 580.833,520.333 583.5,520C 572.811,519.291 562.144,519.458 551.5,520.5C 551.5,517.5 551.5,514.5 551.5,511.5C 548.833,511.5 546.167,511.5 543.5,511.5C 543.708,517.624 542.041,518.124 538.5,513C 539.833,512.667 541.167,512.333 542.5,512C 540.19,511.503 537.857,511.337 535.5,511.5C 532.549,511.713 529.882,511.046 527.5,509.5C 525.833,507.167 523.833,505.167 521.5,503.5C 520.89,501.566 519.89,499.899 518.5,498.5C 517.962,496.883 517.629,495.216 517.5,493.5C 515.269,486.341 513.935,479.008 513.5,471.5C 514.822,471.33 515.989,471.663 517,472.5C 517.333,476.833 517.667,481.167 518,485.5C 520.826,487.34 523.993,488.006 527.5,487.5C 527.5,484.833 527.5,482.167 527.5,479.5C 524.833,479.5 522.167,479.5 519.5,479.5C 518.334,466.219 517.668,452.886 517.5,439.5C 517.585,427.443 518.251,415.443 519.5,403.5C 518.189,399.593 517.522,395.593 517.5,391.5C 520.833,391.5 524.167,391.5 527.5,391.5C 527.5,388.833 527.5,386.167 527.5,383.5C 530.167,383.5 532.833,383.5 535.5,383.5C 535.5,380.833 535.5,378.167 535.5,375.5C 544.359,374.238 553.359,374.238 562.5,375.5C 563.294,405.481 563.794,435.481 564,465.5C 564.333,466.167 564.667,466.833 565,467.5C 566.88,466.07 568.38,466.404 569.5,468.5C 568.833,469.167 568.167,469.833 567.5,470.5C 570.269,471.198 572.602,472.532 574.5,474.5C 575.386,473.675 575.719,472.675 575.5,471.5C 580.844,471.666 586.177,471.499 591.5,471C 592.416,470.722 593.082,470.222 593.5,469.5 Z"/></g>
<g><path style="opacity:1" fill="#192f60" d="M 311.5,383.5 C 313.932,384.75 316.266,386.25 318.5,388C 319.337,389.011 319.67,390.178 319.5,391.5C 314.2,391.618 311.534,388.951 311.5,383.5 Z"/></g>
<g><path style="opacity:1" fill="#45bbdb" d="M 967.5,375.5 C 967.179,377.048 966.179,377.715 964.5,377.5C 964.5,378.5 964.5,379.5 964.5,380.5C 960.054,380.893 956.721,383.06 954.5,387C 950.83,387.279 947.163,387.112 943.5,386.5C 943.5,385.5 943.5,384.5 943.5,383.5C 946.001,384.826 948.668,385.326 951.5,385C 953.033,382.971 954.699,381.138 956.5,379.5C 959.981,377.694 963.647,376.361 967.5,375.5 Z"/></g>
<g><path style="opacity:1" fill="#b1c6dd" d="M 187.5,375.5 C 186.6,380.772 186.267,386.105 186.5,391.5C 186.5,458.833 186.5,526.167 186.5,593.5C 185.334,521.334 185.168,449.001 186,376.5C 186.383,375.944 186.883,375.611 187.5,375.5 Z"/></g>
<g><path style="opacity:1" fill="#aabfd1" d="M 511.5,375.5 C 510.515,407.456 510.181,439.456 510.5,471.5C 509.336,440.003 509.169,408.336 510,376.5C 510.383,375.944 510.883,375.611 511.5,375.5 Z"/></g>
<g><path style="opacity:1" fill="#183265" d="M 562.5,373.5 C 563.789,374.637 564.789,375.97 565.5,377.5C 564.841,406.519 565.508,435.186 567.5,463.5C 568.864,465.191 570.197,466.858 571.5,468.5C 578.648,469.492 585.981,469.825 593.5,469.5C 593.082,470.222 592.416,470.722 591.5,471C 586.177,471.499 580.844,471.666 575.5,471.5C 575.719,472.675 575.386,473.675 574.5,474.5C 572.602,472.532 570.269,471.198 567.5,470.5C 568.167,469.833 568.833,469.167 569.5,468.5C 568.38,466.404 566.88,466.07 565,467.5C 564.667,466.833 564.333,466.167 564,465.5C 563.794,435.481 563.294,405.481 562.5,375.5C 553.359,374.238 544.359,374.238 535.5,375.5C 529.771,375.788 524.104,375.454 518.5,374.5C 517.104,375.852 516.437,377.519 516.5,379.5C 518.242,382.415 517.575,383.749 514.5,383.5C 514.5,386.167 514.5,388.833 514.5,391.5C 513.5,391.5 512.5,391.5 511.5,391.5C 511.5,419.5 511.5,447.5 511.5,475.5C 510.566,474.432 510.232,473.099 510.5,471.5C 510.181,439.456 510.515,407.456 511.5,375.5C 512.5,374.833 513.5,374.167 514.5,373.5C 530.5,372.167 546.5,372.167 562.5,373.5 Z"/></g>
<g><path style="opacity:1" fill="#7dddf1" d="M 678.5,375.5 C 678.5,391.5 678.5,407.5 678.5,423.5C 677.169,416.197 676.502,408.53 676.5,400.5C 676.667,392.833 676.833,385.167 677,377.5C 677.278,376.584 677.778,375.918 678.5,375.5 Z"/></g>
<g><path style="opacity:1" fill="#9de4f1" d="M 815.5,375.5 C 815.5,376.167 815.5,376.833 815.5,377.5C 815.5,448.833 815.5,520.167 815.5,591.5C 813.503,520.508 812.837,449.174 813.5,377.5C 813.5,376.167 814.167,375.5 815.5,375.5 Z"/></g>
<g><path style="opacity:1" fill="#596b89" d="M 565.5,377.5 C 566.182,406.039 566.849,434.706 567.5,463.5C 565.508,435.186 564.841,406.519 565.5,377.5 Z"/></g>
<g><path style="opacity:1" fill="#042a61" d="M 652.5,375.5 C 652.833,375.5 653.167,375.5 653.5,375.5C 653.5,428.833 653.5,482.167 653.5,535.5C 652.794,487.662 652.128,439.662 651.5,391.5C 651.834,386.162 652.168,380.828 652.5,375.5 Z"/></g>
<g><path style="opacity:1" fill="#465d78" d="M 325.5,399.5 C 327.065,401.509 328.065,403.843 328.5,406.5C 326.166,404.824 325.166,402.491 325.5,399.5 Z"/></g>
<g><path style="opacity:1" fill="#1d3f69" d="M 186.5,391.5 C 187.177,459.027 187.843,526.694 188.5,594.5C 188.167,594.5 187.833,594.5 187.5,594.5C 187.5,593.833 187.167,593.5 186.5,593.5C 186.5,526.167 186.5,458.833 186.5,391.5 Z"/></g>
<g><path style="opacity:1" fill="#112f66" d="M 319.5,391.5 C 322.19,393.54 324.19,396.206 325.5,399.5C 325.166,402.491 326.166,404.824 328.5,406.5C 328.5,406.833 328.5,407.167 328.5,407.5C 329.045,410.813 329.545,414.146 330,417.5C 330.5,440.831 330.667,464.164 330.5,487.5C 329.469,489.961 328.802,492.627 328.5,495.5C 327.962,497.117 327.629,498.784 327.5,500.5C 325.801,502.566 324.468,504.9 323.5,507.5C 322.527,509.139 321.194,510.473 319.5,511.5C 319.5,507.5 319.5,503.5 319.5,499.5C 321.331,500.052 322.997,500.052 324.5,499.5C 326.595,495.789 327.762,491.789 328,487.5C 328.783,463.48 328.617,439.48 327.5,415.5C 324.833,415.5 322.167,415.5 319.5,415.5C 319.5,412.833 319.5,410.167 319.5,407.5C 321.167,407.5 322.833,407.5 324.5,407.5C 324.737,403.727 324.237,400.06 323,396.5C 322.632,397.91 321.799,398.91 320.5,399.5C 319.52,396.914 319.187,394.247 319.5,391.5 Z"/></g>
<g><path style="opacity:1" fill="#51bfd5" d="M 1043.5,402.5 C 1046.23,406.322 1047.56,410.656 1047.5,415.5C 1046.83,415.5 1046.17,415.5 1045.5,415.5C 1045.25,411.094 1044.59,406.76 1043.5,402.5 Z"/></g>
<g><path style="opacity:1" fill="#0f345d" d="M 653.5,375.5 C 653.833,375.5 654.167,375.5 654.5,375.5C 655.665,433.999 655.832,492.665 655,551.5C 654.594,554.742 653.761,557.742 652.5,560.5C 652.482,552.149 652.815,543.816 653.5,535.5C 653.5,482.167 653.5,428.833 653.5,375.5 Z"/></g>
<g><path style="opacity:1" fill="#37b8de" d="M 900.5,431.5 C 900.167,431.5 899.833,431.5 899.5,431.5C 898.521,429.855 897.188,428.521 895.5,427.5C 890.014,426.185 884.68,426.185 879.5,427.5C 876.802,427.845 874.802,429.178 873.5,431.5C 872.833,431.5 872.167,431.5 871.5,431.5C 871.238,430.022 871.571,428.689 872.5,427.5C 874.833,426.333 877.167,425.167 879.5,424C 887.5,423.333 895.5,423.333 903.5,424C 901.833,425 900.167,426 898.5,427C 899.582,428.33 900.249,429.83 900.5,431.5 Z"/></g>
<g><path style="opacity:1" fill="#31b2d6" d="M 791.5,375.5 C 792.167,375.5 792.833,375.5 793.5,375.5C 794.136,383.454 794.469,391.454 794.5,399.5C 794.636,407.599 794.136,415.599 793,423.5C 791.59,424.787 790.09,425.954 788.5,427C 780.323,427.171 772.323,427.671 764.5,428.5C 763.596,429.209 763.263,430.209 763.5,431.5C 763.167,431.5 762.833,431.5 762.5,431.5C 762.5,429.833 762.5,428.167 762.5,426.5C 772.285,426.157 781.952,425.157 791.5,423.5C 791.636,407.437 791.636,391.437 791.5,375.5 Z"/></g>
<g><path style="opacity:1" fill="#adeff9" d="M 989.5,431.5 C 982.671,428.057 975.338,426.723 967.5,427.5C 969.743,426.188 972.41,425.522 975.5,425.5C 981.658,424.25 986.325,426.25 989.5,431.5 Z"/></g>
<g><path style="opacity:1" fill="#bdf1f7" d="M 793.5,375.5 C 794.831,383.138 795.498,391.138 795.5,399.5C 795.43,409.187 795.097,418.854 794.5,428.5C 792.167,428.5 789.833,428.5 787.5,428.5C 779.833,428.5 772.167,428.5 764.5,428.5C 772.323,427.671 780.323,427.171 788.5,427C 790.09,425.954 791.59,424.787 793,423.5C 794.136,415.599 794.636,407.599 794.5,399.5C 794.469,391.454 794.136,383.454 793.5,375.5 Z"/></g>
<g><path style="opacity:1" fill="#d5fbfc" d="M 879.5,427.5 C 884.68,426.185 890.014,426.185 895.5,427.5C 897.188,428.521 898.521,429.855 899.5,431.5C 892.981,429.538 886.315,428.205 879.5,427.5 Z"/></g>
<g><path style="opacity:1" fill="#0a2b71" d="M 602.5,375.5 C 603.5,375.5 604.5,375.5 605.5,375.5C 605.751,404.812 605.751,434.146 605.5,463.5C 604.5,463.5 603.5,463.5 602.5,463.5C 602.5,435.167 602.5,406.833 602.5,378.5C 602.5,377.5 602.5,376.5 602.5,375.5 Z"/></g>
<g><path style="opacity:1" fill="#fcfdfd" d="M 269.5,428.5 C 270.795,429.488 272.128,430.488 273.5,431.5C 274.418,443.803 274.752,456.136 274.5,468.5C 274.5,469.5 274.5,470.5 274.5,471.5C 272.821,471.285 271.821,471.952 271.5,473.5C 261.852,474.245 252.185,474.578 242.5,474.5C 242.5,459.167 242.5,443.833 242.5,428.5C 251.5,428.5 260.5,428.5 269.5,428.5 Z"/></g>
<g><path style="opacity:1" fill="#677f95" d="M 328.5,407.5 C 330.068,409.811 330.902,412.478 331,415.5C 331.83,439.67 331.663,463.67 330.5,487.5C 330.667,464.164 330.5,440.831 330,417.5C 329.545,414.146 329.045,410.813 328.5,407.5 Z"/></g>
<g><path style="opacity:1" fill="#354b70" d="M 487.5,407.5 C 488.748,410.942 489.581,414.608 490,418.5C 490.5,425.492 490.666,432.492 490.5,439.5C 489.833,434.167 489.167,428.833 488.5,423.5C 487.658,418.213 487.324,412.88 487.5,407.5 Z"/></g>
<g><path style="opacity:1" fill="#95abcb" d="M 601.5,375.5 C 600.516,404.789 600.183,434.123 600.5,463.5C 600.167,463.5 599.833,463.5 599.5,463.5C 599.333,434.498 599.5,405.498 600,376.5C 600.383,375.944 600.883,375.611 601.5,375.5 Z"/></g>
<g><path style="opacity:1" fill="#052e6c" d="M 649.5,372.5 C 649.833,372.5 650.167,372.5 650.5,372.5C 651.167,373.5 651.833,374.5 652.5,375.5C 647.121,373.75 646.455,374.583 650.5,378C 649.896,406.359 649.563,434.859 649.5,463.5C 649.537,488.883 650.204,514.216 651.5,539.5C 650.472,543.949 649.306,548.282 648,552.5C 647.584,501.54 647.417,450.54 647.5,399.5C 634.167,399.5 620.833,399.5 607.5,399.5C 607.5,410.167 607.5,420.833 607.5,431.5C 612.833,431.5 618.167,431.5 623.5,431.5C 623.5,447.5 623.5,463.5 623.5,479.5C 618.167,479.5 612.833,479.5 607.5,479.5C 607.5,476.833 607.5,474.167 607.5,471.5C 604.833,471.5 602.167,471.5 599.5,471.5C 599.87,467.814 598.537,466.814 595.5,468.5C 595.5,468.167 595.5,467.833 595.5,467.5C 597.194,466.473 598.527,465.139 599.5,463.5C 599.833,463.5 600.167,463.5 600.5,463.5C 601.167,435.167 601.833,406.833 602.5,378.5C 602.5,406.833 602.5,435.167 602.5,463.5C 603.5,463.5 604.5,463.5 605.5,463.5C 605.751,434.146 605.751,404.812 605.5,375.5C 604.5,375.5 603.5,375.5 602.5,375.5C 602.833,374.5 603.5,373.833 604.5,373.5C 619.452,372.532 634.452,372.199 649.5,372.5 Z"/></g>
<g><path style="opacity:1" fill="#12b6ed" d="M 1045.5,415.5 C 1046.17,415.5 1046.83,415.5 1047.5,415.5C 1047.83,415.5 1048.17,415.5 1048.5,415.5C 1048.67,474.168 1048.5,532.834 1048,591.5C 1047.4,594.254 1045.9,596.254 1043.5,597.5C 1028.66,597.829 1013.99,597.496 999.5,596.5C 999.5,595.833 999.5,595.167 999.5,594.5C 1012.82,593.667 1026.15,593.334 1039.5,593.5C 1038.88,534.961 1039.54,476.461 1041.5,418C 1041.52,414.335 1040.85,410.835 1039.5,407.5C 1040.83,407.5 1042.17,407.5 1043.5,407.5C 1042.96,410.698 1043.63,413.365 1045.5,415.5 Z"/></g>
<g><path style="opacity:1" fill="#7588a2" d="M 241.5,427.5 C 241.833,427.5 242.167,427.5 242.5,427.5C 251.682,427.173 260.682,427.507 269.5,428.5C 260.5,428.5 251.5,428.5 242.5,428.5C 242.5,443.833 242.5,459.167 242.5,474.5C 242.5,474.833 242.5,475.167 242.5,475.5C 242.167,475.5 241.833,475.5 241.5,475.5C 241.5,474.167 241.5,472.833 241.5,471.5C 241.5,456.833 241.5,442.167 241.5,427.5 Z"/></g>
<g><path style="opacity:1" fill="#0d234d" d="M 601.5,375.5 C 601.833,375.5 602.167,375.5 602.5,375.5C 602.5,376.5 602.5,377.5 602.5,378.5C 601.833,406.833 601.167,435.167 600.5,463.5C 600.183,434.123 600.516,404.789 601.5,375.5 Z"/></g>
<g><path style="opacity:1" fill="#e9fefe" d="M 813.5,377.5 C 812.837,449.174 813.503,520.508 815.5,591.5C 815.263,592.791 815.596,593.791 816.5,594.5C 816.511,596.017 817.177,597.184 818.5,598C 834.167,598.667 849.833,598.667 865.5,598C 866.244,596.961 867.244,596.461 868.5,596.5C 868.047,597.458 867.381,598.292 866.5,599C 849.503,599.5 832.503,599.667 815.5,599.5C 815.725,597.284 814.892,595.617 813,594.5C 812.168,521.999 812.334,449.666 813.5,377.5 Z"/></g>
<g><path style="opacity:1" fill="#1daee5" d="M 815.5,377.5 C 816.166,382.017 816.833,386.683 817.5,391.5C 818.17,458.871 818.837,526.205 819.5,593.5C 819.043,594.298 818.376,594.631 817.5,594.5C 817.167,594.5 816.833,594.5 816.5,594.5C 815.596,593.791 815.263,592.791 815.5,591.5C 815.5,520.167 815.5,448.833 815.5,377.5 Z"/></g>
<g><path style="opacity:1" fill="#34acd6" d="M 870.5,436.5 C 870.667,488.168 870.5,539.834 870,591.5C 868.833,594 867,595.833 864.5,597C 850.837,597.5 837.171,597.667 823.5,597.5C 836.673,596.833 850.006,596.167 863.5,595.5C 865.323,594.509 866.823,593.176 868,591.5C 868.333,540.167 868.667,488.833 869,437.5C 869.383,436.944 869.883,436.611 870.5,436.5 Z"/></g>
<g><path style="opacity:1" fill="#0cb6e7" d="M 958.5,439.5 C 958.5,490.167 958.5,540.833 958.5,591.5C 957.167,591.5 955.833,591.5 954.5,591.5C 954.5,593.167 954.5,594.833 954.5,596.5C 939.99,596.829 925.657,596.496 911.5,595.5C 925.5,595.5 939.5,595.5 953.5,595.5C 952.18,543.525 952.18,491.525 953.5,439.5C 954.5,487.495 954.833,535.495 954.5,583.5C 955.5,583.5 956.5,583.5 957.5,583.5C 957.168,535.33 957.501,487.33 958.5,439.5 Z"/></g>
<g><path style="opacity:1" fill="#3ab5d5" d="M 958.5,439.5 C 958.833,439.5 959.167,439.5 959.5,439.5C 959.5,490.167 959.5,540.833 959.5,591.5C 958.5,593.813 957.166,595.813 955.5,597.5C 939.119,597.804 922.786,597.471 906.5,596.5C 906.5,596.167 906.5,595.833 906.5,595.5C 908.167,595.5 909.833,595.5 911.5,595.5C 925.657,596.496 939.99,596.829 954.5,596.5C 954.5,594.833 954.5,593.167 954.5,591.5C 955.833,591.5 957.167,591.5 958.5,591.5C 958.5,540.833 958.5,490.167 958.5,439.5 Z"/></g>
<g><path style="opacity:1" fill="#2eb7d2" d="M 993.5,437.5 C 994.175,489.706 994.842,542.039 995.5,594.5C 994.094,594.027 993.427,593.027 993.5,591.5C 993.5,540.167 993.5,488.833 993.5,437.5 Z"/></g>
<g><path style="opacity:1" fill="#11b8e2" d="M 991.5,431.5 C 993.605,432.987 995.272,434.987 996.5,437.5C 995.315,489.213 995.315,540.879 996.5,592.5C 997.005,593.919 998.005,594.585 999.5,594.5C 999.5,595.167 999.5,595.833 999.5,596.5C 998.5,596.5 997.5,596.5 996.5,596.5C 996.167,595.833 995.833,595.167 995.5,594.5C 994.842,542.039 994.175,489.706 993.5,437.5C 993.771,435.62 993.104,434.287 991.5,433.5C 991.5,432.833 991.5,432.167 991.5,431.5 Z"/></g>
<g><path style="opacity:1" fill="#9baac3" d="M 273.5,431.5 C 274.222,431.918 274.722,432.584 275,433.5C 275.826,445.341 275.659,457.007 274.5,468.5C 274.752,456.136 274.418,443.803 273.5,431.5 Z"/></g>
<g><path style="opacity:1" fill="#b4c2da" d="M 429.5,444.5 C 416.996,445.342 404.329,446.009 391.5,446.5C 391.918,445.778 392.584,445.278 393.5,445C 405.495,444.5 417.495,444.333 429.5,444.5 Z"/></g>
<g><path style="opacity:1" fill="#3c537a" d="M 432.5,442.5 C 432.489,444.017 431.823,445.184 430.5,446C 414.804,446.535 399.138,447.368 383.5,448.5C 383.5,448.167 383.5,447.833 383.5,447.5C 386.127,446.908 388.794,446.575 391.5,446.5C 404.329,446.009 416.996,445.342 429.5,444.5C 430.29,443.599 431.29,442.932 432.5,442.5 Z"/></g>
<g><path style="opacity:1" fill="#092e6d" d="M 439.5,372.5 C 444.1,373.334 448.766,374.334 453.5,375.5C 455.5,376.167 457.5,376.833 459.5,377.5C 462.614,379.542 465.948,381.209 469.5,382.5C 478.26,388.87 484.26,397.204 487.5,407.5C 487.324,412.88 487.658,418.213 488.5,423.5C 488.5,428.833 488.5,434.167 488.5,439.5C 487.167,439.5 485.833,439.5 484.5,439.5C 484.5,442.167 484.5,444.833 484.5,447.5C 485.5,447.5 486.5,447.5 487.5,447.5C 488.622,490.155 488.789,532.821 488,575.5C 487.474,579.599 486.641,583.599 485.5,587.5C 485.67,588.822 485.337,589.989 484.5,591C 481.46,593.22 478.127,594.72 474.5,595.5C 473.5,595.5 472.5,595.5 471.5,595.5C 471.5,594.167 471.5,592.833 471.5,591.5C 471.5,590.167 471.5,588.833 471.5,587.5C 476.059,587.276 480.392,587.942 484.5,589.5C 484.5,587.5 484.5,585.5 484.5,583.5C 483.5,583.5 482.5,583.5 481.5,583.5C 482.127,536.781 481.46,490.114 479.5,443.5C 481.475,436.937 482.809,430.27 483.5,423.5C 482.167,423.5 480.833,423.5 479.5,423.5C 478.906,414.965 479.573,406.632 481.5,398.5C 480.478,397.646 479.645,396.646 479,395.5C 474.642,396.261 474.475,397.428 478.5,399C 476.19,399.497 473.857,399.663 471.5,399.5C 471.207,395.563 471.54,391.73 472.5,388C 471.333,387.5 470.5,386.667 470,385.5C 468.254,387.457 466.088,388.457 463.5,388.5C 463.5,386.167 463.5,383.833 463.5,381.5C 458,381.75 452.666,381.75 447.5,381.5C 447.5,403.5 447.5,425.5 447.5,447.5C 444.833,447.5 442.167,447.5 439.5,447.5C 439.5,450.167 439.5,452.833 439.5,455.5C 436.833,455.5 434.167,455.5 431.5,455.5C 431.5,463.5 431.5,471.5 431.5,479.5C 412.833,479.5 394.167,479.5 375.5,479.5C 375.5,471.5 375.5,463.5 375.5,455.5C 379.713,455.662 383.713,454.995 387.5,453.5C 391.407,454.811 395.407,455.478 399.5,455.5C 399.5,454.5 399.5,453.5 399.5,452.5C 397.856,452.286 396.356,452.62 395,453.5C 392.641,451.75 389.974,450.75 387,450.5C 382.071,451.108 377.238,452.108 372.5,453.5C 372.301,456.011 371.968,458.178 371.5,460C 368.367,460.393 365.367,461.226 362.5,462.5C 364.045,463.452 365.712,463.785 367.5,463.5C 367.5,468.833 367.5,474.167 367.5,479.5C 364.833,479.5 362.167,479.5 359.5,479.5C 359.657,478.127 359.49,476.793 359,475.5C 357,478.167 355,478.167 353,475.5C 351.842,475.998 351.009,476.831 350.5,478C 351.536,481.121 351.703,484.287 351,487.5C 349.997,485.065 349.497,485.398 349.5,488.5C 349.497,491.602 349.997,491.935 351,489.5C 351.495,491.473 351.662,493.473 351.5,495.5C 356.833,495.5 362.167,495.5 367.5,495.5C 367.5,524.833 367.5,554.167 367.5,583.5C 365.265,583.205 363.265,583.539 361.5,584.5C 360.833,584.167 360.167,583.833 359.5,583.5C 359.167,582.5 358.5,581.833 357.5,581.5C 356.925,579.589 355.925,577.922 354.5,576.5C 355.936,573.499 355.603,570.665 353.5,568C 352.551,567.383 351.718,567.549 351,568.5C 350.667,566.833 350.333,565.167 350,563.5C 349.583,562.244 348.75,561.577 347.5,561.5C 346.662,561.158 346.328,560.492 346.5,559.5C 346.425,556.794 346.092,554.127 345.5,551.5C 345.291,528.154 345.625,504.821 346.5,481.5C 350.544,470.455 357.544,461.788 367.5,455.5C 369.404,455.262 370.738,454.262 371.5,452.5C 371.833,452.5 372.167,452.5 372.5,452.5C 376.055,450.891 379.722,449.557 383.5,448.5C 399.138,447.368 414.804,446.535 430.5,446C 431.823,445.184 432.489,444.017 432.5,442.5C 434.445,438.394 434.945,434.061 434,429.5C 432.786,427.951 431.286,426.785 429.5,426C 410.5,425.667 391.5,425.333 372.5,425C 370.083,423.337 368.25,421.171 367,418.5C 366.333,404.833 366.333,391.167 367,377.5C 367.748,375.249 369.248,373.916 371.5,373.5C 394.121,372.521 416.788,372.188 439.5,372.5 Z"/></g>
<g><path style="opacity:1" fill="#1c3668" d="M 488.5,423.5 C 489.167,428.833 489.833,434.167 490.5,439.5C 490.667,485.835 490.5,532.168 490,578.5C 490.062,582.377 488.562,585.377 485.5,587.5C 486.641,583.599 487.474,579.599 488,575.5C 488.789,532.821 488.622,490.155 487.5,447.5C 486.5,447.5 485.5,447.5 484.5,447.5C 484.5,444.833 484.5,442.167 484.5,439.5C 485.833,439.5 487.167,439.5 488.5,439.5C 488.5,434.167 488.5,428.833 488.5,423.5 Z"/></g>
<g><path style="opacity:1" fill="#bcf6fb" d="M 681.5,427.5 C 690.751,427.182 699.917,427.515 709,428.5C 709.167,484.002 709.667,539.335 710.5,594.5C 711.11,595.391 711.443,596.391 711.5,597.5C 710.178,597.67 709.011,597.337 708,596.5C 707.5,540.834 707.333,485.168 707.5,429.5C 699.493,429.666 691.493,429.5 683.5,429C 682.584,428.722 681.918,428.222 681.5,427.5 Z"/></g>
<g><path style="opacity:1" fill="#2eb1d8" d="M 679.5,424.5 C 689.613,426.012 699.78,427.012 710,427.5C 710.5,483.166 710.667,538.832 710.5,594.5C 709.667,539.335 709.167,484.002 709,428.5C 699.917,427.515 690.751,427.182 681.5,427.5C 681.218,426.222 680.551,425.222 679.5,424.5 Z"/></g>
<g><path style="opacity:1" fill="#ddfefe" d="M 764.5,428.5 C 772.167,428.5 779.833,428.5 787.5,428.5C 780.352,429.492 773.019,429.825 765.5,429.5C 765.832,484.336 765.499,539.003 764.5,593.5C 764.5,538.5 764.5,483.5 764.5,428.5 Z"/></g>
<g><path style="opacity:1" fill="#b4f6fd" d="M 871.5,431.5 C 872.167,431.5 872.833,431.5 873.5,431.5C 871.868,485.749 870.868,540.082 870.5,594.5C 869.478,594.855 868.811,595.522 868.5,596.5C 867.244,596.461 866.244,596.961 865.5,598C 849.833,598.667 834.167,598.667 818.5,598C 817.177,597.184 816.511,596.017 816.5,594.5C 816.833,594.5 817.167,594.5 817.5,594.5C 818.687,596.975 820.687,597.975 823.5,597.5C 837.171,597.667 850.837,597.5 864.5,597C 867,595.833 868.833,594 870,591.5C 870.5,539.834 870.667,488.168 870.5,436.5C 871.038,434.883 871.371,433.216 871.5,431.5 Z"/></g>
<g><path style="opacity:1" fill="#bbf0fb" d="M 967.5,427.5 C 964.322,430.768 962.322,434.768 961.5,439.5C 960.833,490.167 960.167,540.833 959.5,591.5C 959.5,540.833 959.5,490.167 959.5,439.5C 959.673,433.818 962.339,429.818 967.5,427.5 Z"/></g>
<g><path style="opacity:1" fill="#dffefe" d="M 961.5,439.5 C 961.667,490.834 961.5,542.168 961,593.5C 959.812,594.563 959.312,595.897 959.5,597.5C 958.167,597.5 956.833,597.5 955.5,597.5C 957.166,595.813 958.5,593.813 959.5,591.5C 960.167,540.833 960.833,490.167 961.5,439.5 Z"/></g>
<g><path style="opacity:1" fill="#e6fdfd" d="M 989.5,431.5 C 990.167,431.5 990.833,431.5 991.5,431.5C 991.5,432.167 991.5,432.833 991.5,433.5C 992.158,486.294 992.825,538.961 993.5,591.5C 993.427,593.027 994.094,594.027 995.5,594.5C 995.833,595.167 996.167,595.833 996.5,596.5C 996.5,596.833 996.5,597.167 996.5,597.5C 993.692,597.693 991.025,598.36 988.5,599.5C 988.333,548.832 988.5,498.166 989,447.5C 990.185,442.142 990.351,436.809 989.5,431.5 Z"/></g>
<g><path style="opacity:1" fill="#72cedc" d="M 991.5,433.5 C 993.104,434.287 993.771,435.62 993.5,437.5C 993.5,488.833 993.5,540.167 993.5,591.5C 992.825,538.961 992.158,486.294 991.5,433.5 Z"/></g>
<g><path style="opacity:1" fill="#b4f6fb" d="M 1048.5,415.5 C 1048.83,415.5 1049.17,415.5 1049.5,415.5C 1050.62,474.825 1050.79,534.158 1050,593.5C 1048.43,595.923 1046.26,597.256 1043.5,597.5C 1045.9,596.254 1047.4,594.254 1048,591.5C 1048.5,532.834 1048.67,474.168 1048.5,415.5 Z"/></g>
<g><path style="opacity:1" fill="#9cadc3" d="M 383.5,447.5 C 383.5,447.833 383.5,448.167 383.5,448.5C 379.722,449.557 376.055,450.891 372.5,452.5C 375.477,449.514 379.144,447.848 383.5,447.5 Z"/></g>
<g><path style="opacity:1" fill="#7a7da1" d="M 371.5,452.5 C 370.738,454.262 369.404,455.262 367.5,455.5C 368.262,453.738 369.596,452.738 371.5,452.5 Z"/></g>
<g><path style="opacity:1" fill="#199ec3" d="M 762.5,431.5 C 762.833,431.5 763.167,431.5 763.5,431.5C 763.825,486.542 763.492,541.542 762.5,596.5C 762.167,596.5 761.833,596.5 761.5,596.5C 762.479,541.519 762.812,486.519 762.5,431.5 Z"/></g>
<g><path style="opacity:1" fill="#7acddd" d="M 764.5,428.5 C 764.5,483.5 764.5,538.5 764.5,593.5C 764.573,595.027 763.906,596.027 762.5,596.5C 763.492,541.542 763.825,486.542 763.5,431.5C 763.263,430.209 763.596,429.209 764.5,428.5 Z"/></g>
<g><path style="opacity:1" fill="#0f3266" d="M 241.5,427.5 C 241.5,442.167 241.5,456.833 241.5,471.5C 240.169,464.532 239.503,457.198 239.5,449.5C 239.503,441.802 240.169,434.468 241.5,427.5 Z"/></g>
<g><path style="opacity:1" fill="#7b8dab" d="M 595.5,467.5 C 595.5,467.833 595.5,468.167 595.5,468.5C 594.508,468.328 593.842,468.662 593.5,469.5C 585.981,469.825 578.648,469.492 571.5,468.5C 579.542,468.736 587.542,468.403 595.5,467.5 Z"/></g>
<g><path style="opacity:1" fill="#b7c5dd" d="M 271.5,473.5 C 271.082,474.222 270.416,474.722 269.5,475C 260.506,475.5 251.506,475.666 242.5,475.5C 242.5,475.167 242.5,474.833 242.5,474.5C 252.185,474.578 261.852,474.245 271.5,473.5 Z"/></g>
<g><path style="opacity:1" fill="#102d5e" d="M 275.5,479.5 C 268.48,479.164 261.48,478.497 254.5,477.5C 251.314,477.502 248.314,477.835 245.5,478.5C 244.292,479.234 242.959,479.567 241.5,479.5C 241.5,478.167 241.5,476.833 241.5,475.5C 241.833,475.5 242.167,475.5 242.5,475.5C 251.506,475.666 260.506,475.5 269.5,475C 270.416,474.722 271.082,474.222 271.5,473.5C 271.821,471.952 272.821,471.285 274.5,471.5C 274.5,470.5 274.5,469.5 274.5,468.5C 275.659,457.007 275.826,445.341 275,433.5C 274.722,432.584 274.222,431.918 273.5,431.5C 272.128,430.488 270.795,429.488 269.5,428.5C 260.682,427.507 251.682,427.173 242.5,427.5C 242.47,426.503 242.97,425.836 244,425.5C 254.584,425.967 265.084,426.967 275.5,428.5C 276.802,441.284 278.135,454.118 279.5,467C 277.292,470.793 275.959,474.96 275.5,479.5 Z"/></g>
<g><path style="opacity:1" fill="#052d6d" d="M 245.5,478.5 C 248.314,477.835 251.314,477.502 254.5,477.5C 261.48,478.497 268.48,479.164 275.5,479.5C 279.5,479.5 283.5,479.5 287.5,479.5C 287.5,484.833 287.5,490.167 287.5,495.5C 276.833,495.5 266.167,495.5 255.5,495.5C 255.5,492.833 255.5,490.167 255.5,487.5C 252.833,487.5 250.167,487.5 247.5,487.5C 248.055,483.988 247.388,480.988 245.5,478.5 Z"/></g>
<g><path style="opacity:1" fill="#02b9f9" d="M 907.5,439.5 C 909.495,487.155 910.162,535.155 909.5,583.5C 908.5,583.5 907.5,583.5 906.5,583.5C 906.168,535.33 906.501,487.33 907.5,439.5 Z"/></g>
<g><path style="opacity:1" fill="#03bfea" d="M 911.5,595.5 C 909.833,595.5 908.167,595.5 906.5,595.5C 906.5,595.167 906.5,594.833 906.5,594.5C 907.167,594.5 907.5,594.167 907.5,593.5C 908.75,593.423 909.583,592.756 910,591.5C 910.333,554.167 910.667,516.833 911,479.5C 911.5,518.165 911.667,556.832 911.5,595.5 Z"/></g>
<g><path style="opacity:1" fill="#d9fbfe" d="M 900.5,431.5 C 900.833,431.5 901.167,431.5 901.5,431.5C 901.5,432.167 901.5,432.833 901.5,433.5C 902.491,486.125 902.825,538.791 902.5,591.5C 901.798,538.323 901.132,484.99 900.5,431.5 Z"/></g>
<g><path style="opacity:1" fill="#a0adc7" d="M 330.5,487.5 C 331.036,490.698 330.369,493.365 328.5,495.5C 328.802,492.627 329.469,489.961 330.5,487.5 Z"/></g>
<g><path style="opacity:1" fill="#bcf5f6" d="M 901.5,433.5 C 902.117,433.611 902.617,433.944 903,434.5C 903.5,486.832 903.667,539.166 903.5,591.5C 903.167,591.5 902.833,591.5 902.5,591.5C 902.825,538.791 902.491,486.125 901.5,433.5 Z"/></g>
<g><path style="opacity:1" fill="#3eb3e0" d="M 901.5,431.5 C 902.973,432.071 904.64,432.071 906.5,431.5C 906.575,434.206 906.908,436.873 907.5,439.5C 906.501,487.33 906.168,535.33 906.5,583.5C 906.253,586.939 906.586,590.272 907.5,593.5C 907.5,594.167 907.167,594.5 906.5,594.5C 904.81,594.144 903.81,593.144 903.5,591.5C 903.667,539.166 903.5,486.832 903,434.5C 902.617,433.944 902.117,433.611 901.5,433.5C 901.5,432.833 901.5,432.167 901.5,431.5 Z"/></g>
<g><path style="opacity:1" fill="#99aac6" d="M 426.5,497.5 C 427.791,497.263 428.791,497.596 429.5,498.5C 421.112,498.227 412.779,498.56 404.5,499.5C 404.611,498.883 404.944,498.383 405.5,498C 412.492,497.5 419.492,497.334 426.5,497.5 Z"/></g>
<g><path style="opacity:1" fill="#7590ac" d="M 515.5,492.5 C 516.167,492.833 516.833,493.167 517.5,493.5C 517.629,495.216 517.962,496.883 518.5,498.5C 516.755,496.967 515.755,494.967 515.5,492.5 Z"/></g>
<g><path style="opacity:1" fill="#f8fafc" d="M 429.5,498.5 C 431.521,499.855 433.188,501.521 434.5,503.5C 434.667,516.171 434.5,528.838 434,541.5C 432.532,544.142 430.365,545.809 427.5,546.5C 419.778,546.767 412.111,546.434 404.5,545.5C 403.269,544.282 402.102,542.949 401,541.5C 400.333,528.833 400.333,516.167 401,503.5C 401.66,501.676 402.827,500.343 404.5,499.5C 412.779,498.56 421.112,498.227 429.5,498.5 Z"/></g>
<g><path style="opacity:1" fill="#a1b0ca" d="M 327.5,500.5 C 327.275,503.546 325.942,505.879 323.5,507.5C 324.468,504.9 325.801,502.566 327.5,500.5 Z"/></g>
<g><path style="opacity:1" fill="#9dacbe" d="M 521.5,503.5 C 523.833,505.167 525.833,507.167 527.5,509.5C 524.5,508.5 522.5,506.5 521.5,503.5 Z"/></g>
<g><path style="opacity:1" fill="#a0aebf" d="M 323.5,507.5 C 323.378,510.292 322.044,512.292 319.5,513.5C 319.5,513.167 319.5,512.833 319.5,512.5C 319.5,512.167 319.5,511.833 319.5,511.5C 321.194,510.473 322.527,509.139 323.5,507.5 Z"/></g>
<g><path style="opacity:1" fill="#223e64" d="M 527.5,509.5 C 529.882,511.046 532.549,511.713 535.5,511.5C 535.5,512.833 535.5,514.167 535.5,515.5C 532.562,513.768 529.896,511.768 527.5,509.5 Z"/></g>
<g><path style="opacity:1" fill="#092d6c" d="M 319.5,512.5 C 319.5,512.833 319.5,513.167 319.5,513.5C 315.312,517.414 310.979,521.081 306.5,524.5C 304.033,524.755 302.033,525.755 300.5,527.5C 300.167,527.5 299.833,527.5 299.5,527.5C 295.7,529.143 291.7,529.81 287.5,529.5C 272.055,530.034 256.722,529.367 241.5,527.5C 241.198,530.373 240.531,533.039 239.5,535.5C 239.5,530.167 239.5,524.833 239.5,519.5C 242.167,519.5 244.833,519.5 247.5,519.5C 247.777,522.448 247.444,525.281 246.5,528C 260.865,528.82 271.865,528.654 279.5,527.5C 279.5,524.833 279.5,522.167 279.5,519.5C 287.5,519.5 295.5,519.5 303.5,519.5C 303.5,517.833 303.5,516.167 303.5,514.5C 304.5,514.5 305.5,514.5 306.5,514.5C 306.5,513.5 306.5,512.5 306.5,511.5C 308.167,511.5 309.833,511.5 311.5,511.5C 311.907,518.049 312.907,518.049 314.5,511.5C 316.071,512.309 317.738,512.643 319.5,512.5 Z"/></g>
<g><path style="opacity:1" fill="#97aaca" d="M 344.5,488.5 C 344.169,509.673 344.503,530.673 345.5,551.5C 346.092,554.127 346.425,556.794 346.5,559.5C 345.59,557.981 344.757,556.315 344,554.5C 343.17,532.329 343.337,510.329 344.5,488.5 Z"/></g>
<g><path style="opacity:1" fill="#233a63" d="M 346.5,481.5 C 345.625,504.821 345.291,528.154 345.5,551.5C 344.503,530.673 344.169,509.673 344.5,488.5C 345.065,486.048 345.732,483.715 346.5,481.5 Z"/></g>
<g><path style="opacity:1" fill="#c1cce4" d="M 549.5,522.5 C 551.75,522.181 553.75,522.681 555.5,524C 568.5,524.333 581.5,524.667 594.5,525C 595.416,525.278 596.082,525.778 596.5,526.5C 582.532,525.719 568.532,525.219 554.5,525C 552.825,524.015 551.158,523.181 549.5,522.5 Z"/></g>
<g><path style="opacity:1" fill="#a3abc6" d="M 306.5,524.5 C 304.967,526.245 302.967,527.245 300.5,527.5C 302.033,525.755 304.033,524.755 306.5,524.5 Z"/></g>
<g><path style="opacity:1" fill="#052d6d" d="M 439.5,535.5 C 442.167,535.5 444.833,535.5 447.5,535.5C 447.5,538.167 447.5,540.833 447.5,543.5C 450.167,543.5 452.833,543.5 455.5,543.5C 455.5,548.833 455.5,554.167 455.5,559.5C 452.833,559.5 450.167,559.5 447.5,559.5C 447.5,564.833 447.5,570.167 447.5,575.5C 442.167,575.5 436.833,575.5 431.5,575.5C 431.184,567.248 431.518,559.081 432.5,551C 431.934,550.005 431.267,549.172 430.5,548.5C 431.878,547.766 433.378,547.099 435,546.5C 435.667,544.5 436.333,542.5 437,540.5C 437.419,541.672 438.085,542.672 439,543.5C 439.497,540.854 439.664,538.187 439.5,535.5 Z"/></g>
<g><path style="opacity:1" fill="#c4daed" d="M 599.5,537.5 C 599.141,539.371 598.141,540.871 596.5,542C 575.503,542.5 554.503,542.667 533.5,542.5C 553.663,541.668 573.996,541.168 594.5,541C 596.323,540.003 597.99,538.836 599.5,537.5 Z"/></g>
<g><path style="opacity:1" fill="#334972" d="M 287.5,529.5 C 272.871,531.484 257.871,532.15 242.5,531.5C 242.833,551.511 242.5,571.511 241.5,591.5C 240.542,593.784 239.208,595.784 237.5,597.5C 221.83,597.667 206.163,597.5 190.5,597C 189.619,596.292 188.953,595.458 188.5,594.5C 189.167,594.5 189.833,594.5 190.5,594.5C 191.167,594.5 191.5,594.833 191.5,595.5C 206.404,596.823 220.737,596.823 234.5,595.5C 234.989,592.676 236.656,591.343 239.5,591.5C 239.5,572.833 239.5,554.167 239.5,535.5C 240.531,533.039 241.198,530.373 241.5,527.5C 256.722,529.367 272.055,530.034 287.5,529.5 Z"/></g>
<g><path style="opacity:1" fill="#0f306e" d="M 535.5,511.5 C 537.857,511.337 540.19,511.503 542.5,512C 541.167,512.333 539.833,512.667 538.5,513C 542.041,518.124 543.708,517.624 543.5,511.5C 546.167,511.5 548.833,511.5 551.5,511.5C 551.5,514.5 551.5,517.5 551.5,520.5C 562.144,519.458 572.811,519.291 583.5,520C 580.833,520.333 578.167,520.667 575.5,521C 581.511,522.018 587.344,521.518 593,519.5C 594.867,520.377 596.034,521.877 596.5,524C 597.899,524.595 599.232,524.428 600.5,523.5C 601.478,523.977 602.311,524.643 603,525.5C 602.683,528.746 602.517,532.08 602.5,535.5C 603.5,535.5 604.5,535.5 605.5,535.5C 605.678,532.784 606.178,530.117 607,527.5C 607.867,531.956 607.534,536.289 606,540.5C 605.667,540.167 605.333,539.833 605,539.5C 600.459,542.619 601.293,543.952 607.5,543.5C 607.5,548.833 607.5,554.167 607.5,559.5C 583.5,559.5 559.5,559.5 535.5,559.5C 535.159,580.792 534.159,580.792 532.5,559.5C 531.501,570.146 531.168,580.813 531.5,591.5C 529.779,577.505 528.779,563.172 528.5,548.5C 528.5,547.833 528.5,547.167 528.5,546.5C 529.672,544.461 531.338,543.128 533.5,542.5C 554.503,542.667 575.503,542.5 596.5,542C 598.141,540.871 599.141,539.371 599.5,537.5C 601.518,532.861 600.518,529.194 596.5,526.5C 596.082,525.778 595.416,525.278 594.5,525C 581.5,524.667 568.5,524.333 555.5,524C 553.75,522.681 551.75,522.181 549.5,522.5C 544.489,520.661 539.822,518.328 535.5,515.5C 535.5,514.167 535.5,512.833 535.5,511.5 Z"/></g>
<g><path style="opacity:1" fill="#233a6c" d="M 426.5,497.5 C 419.492,497.334 412.492,497.5 405.5,498C 404.944,498.383 404.611,498.883 404.5,499.5C 402.827,500.343 401.66,501.676 401,503.5C 400.333,516.167 400.333,528.833 401,541.5C 402.102,542.949 403.269,544.282 404.5,545.5C 404.611,546.117 404.944,546.617 405.5,547C 413.012,547.822 420.345,547.655 427.5,546.5C 430.365,545.809 432.532,544.142 434,541.5C 434.5,528.838 434.667,516.171 434.5,503.5C 435.072,516.695 435.739,527.362 436.5,535.5C 437.5,535.5 438.5,535.5 439.5,535.5C 439.664,538.187 439.497,540.854 439,543.5C 438.085,542.672 437.419,541.672 437,540.5C 436.333,542.5 435.667,544.5 435,546.5C 433.378,547.099 431.878,547.766 430.5,548.5C 419.929,550.348 409.596,549.681 399.5,546.5C 398.358,543.935 397.358,541.269 396.5,538.5C 396.453,537 397.119,536 398.5,535.5C 399.332,524.181 399.832,512.848 400,501.5C 401.5,499.333 403.333,497.5 405.5,496C 411.5,495.333 417.5,495.333 423.5,496C 424.737,496.232 425.737,496.732 426.5,497.5 Z"/></g>
<g><path style="opacity:1" fill="#a6b5cb" d="M 404.5,545.5 C 412.111,546.434 419.778,546.767 427.5,546.5C 420.345,547.655 413.012,547.822 405.5,547C 404.944,546.617 404.611,546.117 404.5,545.5 Z"/></g>
<g><path style="opacity:1" fill="#c6cbd4" d="M 528.5,546.5 C 528.5,547.167 528.5,547.833 528.5,548.5C 527.504,562.657 527.171,576.99 527.5,591.5C 526.339,577.006 526.172,562.339 527,547.5C 527.383,546.944 527.883,546.611 528.5,546.5 Z"/></g>
<g><path style="opacity:1" fill="#112f5c" d="M 347.5,561.5 C 348.75,561.577 349.583,562.244 350,563.5C 350.333,565.167 350.667,566.833 351,568.5C 351.718,567.549 352.551,567.383 353.5,568C 355.603,570.665 355.936,573.499 354.5,576.5C 353.833,576.167 353.167,575.833 352.5,575.5C 350.272,571.042 348.605,566.375 347.5,561.5 Z"/></g>
<g><path style="opacity:1" fill="#b1bfd3" d="M 652.5,561.5 C 652.739,566.407 651.072,570.407 647.5,573.5C 649.186,569.424 650.853,565.424 652.5,561.5 Z"/></g>
<g><path style="opacity:1" fill="#e1e9f5" d="M 299.5,527.5 C 299.423,528.75 298.756,529.583 297.5,530C 279.718,533.536 261.718,534.37 243.5,532.5C 243.667,553.169 243.5,573.836 243,594.5C 242.667,594.167 242.333,593.833 242,593.5C 242.263,594.951 242.096,596.284 241.5,597.5C 240.274,596.637 238.94,596.637 237.5,597.5C 239.208,595.784 240.542,593.784 241.5,591.5C 242.5,571.511 242.833,551.511 242.5,531.5C 257.871,532.15 272.871,531.484 287.5,529.5C 291.7,529.81 295.7,529.143 299.5,527.5 Z"/></g>
<g><path style="opacity:1" fill="#97a6c3" d="M 352.5,575.5 C 353.167,575.833 353.833,576.167 354.5,576.5C 355.925,577.922 356.925,579.589 357.5,581.5C 355.086,580.089 353.419,578.089 352.5,575.5 Z"/></g>
<g><path style="opacity:1" fill="#0d2f68" d="M 632.5,587.5 C 631.055,589.063 629.389,590.396 627.5,591.5C 624.089,592.88 620.756,594.214 617.5,595.5C 616.081,596.451 614.415,596.784 612.5,596.5C 586.833,596.5 561.167,596.5 535.5,596.5C 557.33,595.668 579.33,595.168 601.5,595C 604.5,594.667 607.5,594.333 610.5,594C 609.5,593.667 608.5,593.333 607.5,593C 609.278,592.296 611.112,591.796 613,591.5C 614.8,592.378 616.633,593.045 618.5,593.5C 618.421,592.07 618.754,590.736 619.5,589.5C 618.311,588.571 616.978,588.238 615.5,588.5C 615.5,586.833 615.5,585.167 615.5,583.5C 618.5,583.167 619.833,584.5 619.5,587.5C 622.927,585.799 626.593,584.466 630.5,583.5C 630.157,585.483 630.824,586.817 632.5,587.5 Z"/></g>
<g><path style="opacity:1" fill="#1e3867" d="M 367.5,583.5 C 368.873,583.343 370.207,583.51 371.5,584C 368.833,585 368.833,586 371.5,587C 371.167,587.333 370.833,587.667 370.5,588C 371.305,589.113 371.972,590.279 372.5,591.5C 368.046,590.374 364.379,588.041 361.5,584.5C 363.265,583.539 365.265,583.205 367.5,583.5 Z"/></g>
<g><path style="opacity:1" fill="#1f3b6f" d="M 471.5,591.5 C 471.5,592.833 471.5,594.167 471.5,595.5C 472.5,595.5 473.5,595.5 474.5,595.5C 474.5,595.833 474.5,596.167 474.5,596.5C 444.196,597.785 413.862,597.785 383.5,596.5C 383.158,595.662 382.492,595.328 381.5,595.5C 380.167,594.833 378.833,594.167 377.5,593.5C 395.482,594.583 413.482,594.75 431.5,594C 423.479,593.832 415.479,593.332 407.5,592.5C 428.823,591.5 450.156,591.167 471.5,591.5 Z"/></g>
<g><path style="opacity:1" fill="#a9b8d2" d="M 627.5,591.5 C 625.109,594.917 621.775,596.25 617.5,595.5C 620.756,594.214 624.089,592.88 627.5,591.5 Z"/></g>
<g><path style="opacity:1" fill="#02275f" d="M 234.5,595.5 C 220.737,596.823 206.404,596.823 191.5,595.5C 196.875,595.828 202.208,595.495 207.5,594.5C 204.833,593.833 202.167,593.167 199.5,592.5C 200.833,592.167 202.167,591.833 203.5,591.5C 207.476,592.164 211.476,592.497 215.5,592.5C 215.5,593.5 215.5,594.5 215.5,595.5C 221.833,595.5 228.167,595.5 234.5,595.5 Z"/></g>
<g><path style="opacity:1" fill="#cddce8" d="M 359.5,583.5 C 360.167,583.833 360.833,584.167 361.5,584.5C 364.379,588.041 368.046,590.374 372.5,591.5C 374.05,592.441 375.716,593.107 377.5,593.5C 378.833,594.167 380.167,594.833 381.5,595.5C 379.738,595.357 378.071,595.691 376.5,596.5C 372.947,593.556 368.947,591.39 364.5,590C 361.507,588.841 359.84,586.675 359.5,583.5 Z"/></g>
<g><path style="opacity:1" fill="#375075" d="M 528.5,548.5 C 528.779,563.172 529.779,577.505 531.5,591.5C 531.822,592.858 531.822,594.525 531.5,596.5C 532.833,596.5 534.167,596.5 535.5,596.5C 561.167,596.5 586.833,596.5 612.5,596.5C 611.048,597.302 609.382,597.802 607.5,598C 582.5,598.667 557.5,598.667 532.5,598C 530.183,596.218 528.516,594.051 527.5,591.5C 527.171,576.99 527.504,562.657 528.5,548.5 Z"/></g>
<g><path style="opacity:1" fill="#30b6d8" d="M 710.5,594.5 C 711.756,594.461 712.756,594.961 713.5,596C 727.496,596.5 741.496,596.667 755.5,596.5C 757.5,596.5 759.5,596.5 761.5,596.5C 760.449,597.222 759.782,598.222 759.5,599.5C 744.496,599.667 729.496,599.5 714.5,599C 713.756,597.961 712.756,597.461 711.5,597.5C 711.443,596.391 711.11,595.391 710.5,594.5 Z"/></g>
<g><path style="opacity:1" fill="#9eacc6" d="M 187.5,594.5 C 187.833,594.5 188.167,594.5 188.5,594.5C 188.953,595.458 189.619,596.292 190.5,597C 206.163,597.5 221.83,597.667 237.5,597.5C 221.328,598.827 204.995,598.827 188.5,597.5C 187.873,596.583 187.539,595.583 187.5,594.5 Z"/></g>
<g><path style="opacity:1" fill="#d4ddec" d="M 383.5,596.5 C 413.862,597.785 444.196,597.785 474.5,596.5C 460.349,597.833 445.849,598.499 431,598.5C 416.5,598.333 402,598.167 387.5,598C 385.942,597.79 384.609,597.29 383.5,596.5 Z"/></g>
<g><path style="opacity:1" fill="#a8ecf6" d="M 906.5,596.5 C 922.786,597.471 939.119,597.804 955.5,597.5C 955.389,598.117 955.056,598.617 954.5,599C 939.167,599.667 923.833,599.667 908.5,599C 907.619,598.292 906.953,597.458 906.5,596.5 Z"/></g>
<g><path style="opacity:1" fill="#b6edfb" d="M 996.5,597.5 C 996.5,597.167 996.5,596.833 996.5,596.5C 997.5,596.5 998.5,596.5 999.5,596.5C 1013.99,597.496 1028.66,597.829 1043.5,597.5C 1027.93,598.823 1012.26,598.823 996.5,597.5 Z"/></g>
<g><path style="opacity:1" fill="#cdfdfc" d="M 711.5,597.5 C 712.756,597.461 713.756,597.961 714.5,599C 729.496,599.5 744.496,599.667 759.5,599.5C 743.868,601.485 727.868,602.151 711.5,601.5C 711.5,600.167 711.5,598.833 711.5,597.5 Z"/></g>
</svg>
