<?xml version="1.0" encoding="UTF-8"?>
<!DOCTYPE svg PUBLIC "-//W3C//DTD SVG 1.1//EN" "http://www.w3.org/Graphics/SVG/1.1/DTD/svg11.dtd">
<svg xmlns="http://www.w3.org/2000/svg" version="1.1" width="3500px" height="1319px" style="shape-rendering:geometricPrecision; text-rendering:geometricPrecision; image-rendering:optimizeQuality; fill-rule:evenodd; clip-rule:evenodd" xmlns:xlink="http://www.w3.org/1999/xlink">
<g><path style="opacity:0.996" fill="#02b9ef" d="M 2247.5,126.5 C 2254.53,125.805 2261.19,126.972 2267.5,130C 2271.4,134.021 2273.57,138.855 2274,144.5C 2273.42,189.489 2273.42,234.489 2274,279.5C 2275.17,286 2279,289.833 2285.5,291C 2318.51,291.566 2351.51,291.566 2384.5,291C 2390.31,291.487 2394.48,294.321 2397,299.5C 2398.66,362.776 2398.99,426.109 2398,489.5C 2397.3,496.75 2393.47,501.25 2386.5,503C 2377.5,502.317 2368.5,502.483 2359.5,503.5C 2342.66,502.203 2325.83,500.87 2309,499.5C 2289.81,497.743 2277.81,506.076 2273,524.5C 2271.96,531.788 2271.46,539.122 2271.5,546.5C 2272.05,561.847 2272.89,577.18 2274,592.5C 2274.99,786.534 2274.66,980.534 2273,1174.5C 2270.97,1182.53 2265.8,1187.03 2257.5,1188C 2223.51,1187.87 2189.51,1187.54 2155.5,1187C 2088.74,1178.24 2051.57,1140.4 2044,1073.5C 2043.19,895.33 2043.35,717.163 2044.5,539C 2045.03,529.596 2043.86,520.429 2041,511.5C 2037.76,506.791 2033.26,503.958 2027.5,503C 2003.16,503.879 1978.83,504.879 1954.5,506C 1927.48,504.636 1914.81,490.303 1916.5,463C 1917.57,445.316 1918.9,427.649 1920.5,410C 1919.88,391.134 1918.71,372.301 1917,353.5C 1916.33,342.833 1916.33,332.167 1917,321.5C 1918.7,299.467 1930.53,287.967 1952.5,287C 1983.81,290.644 2013.81,285.977 2042.5,273C 2077.15,257.35 2106.99,235.184 2132,206.5C 2146.44,186.394 2163.27,168.561 2182.5,153C 2202.19,139.163 2223.86,130.329 2247.5,126.5 Z"/></g>
<g><path style="opacity:0.996" fill="#02b9ef" d="M 2839.5,275.5 C 2898.47,271.988 2949.8,289.821 2993.5,329C 3003.86,339.029 3013.86,349.363 3023.5,360C 3027.59,362.066 3031.25,361.399 3034.5,358C 3054.2,335.945 3076.54,317.278 3101.5,302C 3172.24,264.979 3241.91,266.979 3310.5,308C 3370.13,344.709 3402.63,398.209 3408,468.5C 3409.55,673.831 3409.88,879.164 3409,1084.5C 3404.28,1144.56 3372.11,1178.72 3312.5,1187C 3273.49,1187.52 3234.49,1187.86 3195.5,1188C 3185.64,1184.81 3180.14,1177.98 3179,1167.5C 3178.67,959.5 3178.33,751.5 3178,543.5C 3177.13,517.325 3164.3,500.492 3139.5,493C 3123.8,488.706 3108.14,488.706 3092.5,493C 3067.01,503.177 3052.84,522.01 3050,549.5C 3049.67,729.833 3049.33,910.167 3049,1090.5C 3042.84,1146.32 3012.01,1178.16 2956.5,1186C 2926.43,1187.17 2896.43,1189.34 2866.5,1192.5C 2830.96,1193.12 2814.29,1175.62 2816.5,1140C 2817.27,1122.81 2818.44,1105.64 2820,1088.5C 2820.67,909.833 2820.67,731.167 2820,552.5C 2818.54,531.746 2810.37,514.246 2795.5,500C 2777.15,487.452 2757.49,485.119 2736.5,493C 2708.56,502.952 2693.4,522.785 2691,552.5C 2690.67,730.167 2690.33,907.833 2690,1085.5C 2682.95,1148.55 2647.79,1182.38 2584.5,1187C 2566.67,1187.35 2548.83,1187.18 2531,1186.5C 2516.97,1186.46 2502.97,1187.12 2489,1188.5C 2470.31,1189.15 2460.65,1180.15 2460,1161.5C 2459.83,1147.33 2459.67,1133.17 2459.5,1119C 2459.97,844.78 2460.8,570.613 2462,296.5C 2464.46,292.71 2467.96,290.544 2472.5,290C 2540.83,289.333 2609.17,289.333 2677.5,290C 2687.36,291.867 2692.02,297.867 2691.5,308C 2690.26,322.175 2690.43,336.341 2692,350.5C 2706.59,339.12 2721.09,327.62 2735.5,316C 2766.8,293.735 2801.47,280.235 2839.5,275.5 Z"/></g>
<g><path style="opacity:0.998" fill="#062f6e" d="M 811.5,288.5 C 828.875,288.431 846.208,289.265 863.5,291C 948.5,291.333 1033.5,291.667 1118.5,292C 1182.17,298.011 1222.34,331.844 1239,393.5C 1240.32,399.782 1241.32,406.115 1242,412.5C 1242.33,426.5 1242.67,440.5 1243,454.5C 1243.37,648.516 1242.7,842.516 1241,1036.5C 1237.58,1073.13 1224.58,1105.8 1202,1134.5C 1176.24,1161.63 1144.74,1178.13 1107.5,1184C 1095.91,1185.99 1084.24,1187.32 1072.5,1188C 1009.5,1188.67 946.5,1188.67 883.5,1188C 827.236,1185.11 780.736,1162.61 744,1120.5C 721.324,1091.79 707.991,1059.13 704,1022.5C 698.862,939.874 698.195,857.207 702,774.5C 707.138,695.418 744.972,638.251 815.5,603C 837.853,593.245 861.187,587.245 885.5,585C 924.82,583.795 964.154,583.128 1003.5,583C 1019.12,579.713 1028.29,570.213 1031,554.5C 1033.64,540.594 1031.97,527.261 1026,514.5C 1020.96,508.228 1014.46,504.394 1006.5,503C 968.5,502.667 930.5,502.333 892.5,502C 865.46,501.21 841.127,492.877 819.5,477C 802.071,461.651 791.238,442.484 787,419.5C 784.633,389.666 782.133,359.833 779.5,330C 777.415,305.955 788.082,292.122 811.5,288.5 Z M 965.5,776.5 C 979.504,776.333 993.504,776.5 1007.5,777C 1019.29,777.461 1026.79,783.295 1030,794.5C 1030.91,798.795 1031.58,803.128 1032,807.5C 1032.29,841.004 1032.79,874.504 1033.5,908C 1031.6,925.272 1032.27,942.439 1035.5,959.5C 1035.84,969.674 1031.17,976.174 1021.5,979C 994.826,982.243 968.493,980.243 942.5,973C 922.003,964.87 911.169,949.703 910,927.5C 908.035,892.833 908.035,858.166 910,823.5C 912.103,801.425 923.603,786.925 944.5,780C 951.564,778.34 958.564,777.173 965.5,776.5 Z"/></g>
<g><path style="opacity:0.998" fill="#062f6e" d="M 364.5,289.5 C 398.543,288.919 432.543,289.753 466.5,292C 514.174,294.435 556.174,310.768 592.5,341C 628.219,375.431 647.386,417.597 650,467.5C 650.667,575.5 650.667,683.5 650,791.5C 641.855,905.978 580.688,968.812 466.5,980C 421.505,981.659 376.505,981.992 331.5,981C 323.568,981.601 318.734,985.767 317,993.5C 316.667,1025.83 316.333,1058.17 316,1090.5C 313.112,1133.69 291.945,1163.85 252.5,1181C 246.589,1182.98 240.589,1184.64 234.5,1186C 206.781,1188.17 179.115,1190.67 151.5,1193.5C 140.247,1193.52 129.58,1191.02 119.5,1186C 110.962,1180.1 106.129,1171.93 105,1161.5C 104.009,1142.07 105.009,1122.74 108,1103.5C 108.333,888.167 108.667,672.833 109,457.5C 109.721,415.996 122.721,378.996 148,346.5C 176.856,314.989 212.69,297.155 255.5,293C 291.99,291.898 328.323,290.731 364.5,289.5 Z M 336.5,502.5 C 357.18,502.421 377.847,502.921 398.5,504C 426.54,506.043 441.04,521.21 442,549.5C 442.966,560.143 443.466,570.81 443.5,581.5C 442.775,629.164 442.275,676.83 442,724.5C 441.025,745.447 430.858,759.614 411.5,767C 389.054,771.426 366.388,773.426 343.5,773C 330.658,772.804 322.491,766.638 319,754.5C 318.114,749.53 317.448,744.53 317,739.5C 316.575,665.161 316.241,590.827 316,516.5C 316.564,512.873 318.064,509.707 320.5,507C 325.653,504.392 330.987,502.892 336.5,502.5 Z"/></g>
<g><path style="opacity:0.997" fill="#062f6e" d="M 1319.5,291.5 C 1381.5,292.571 1443.5,292.738 1505.5,292C 1512.58,292.749 1516.75,296.583 1518,303.5C 1518.01,415.526 1518.68,527.526 1520,639.5C 1526.58,672.733 1546.92,689.066 1581,688.5C 1597.09,689.491 1611.59,685.324 1624.5,676C 1633.3,666.572 1638.46,655.406 1640,642.5C 1641.12,598.847 1641.62,555.181 1641.5,511.5C 1641.08,444.499 1640.92,377.499 1641,310.5C 1641.72,299.452 1647.55,293.286 1658.5,292C 1689.16,292.186 1719.83,292.686 1750.5,293.5C 1774.51,293.199 1798.51,292.532 1822.5,291.5C 1830.66,290.654 1838.33,292.154 1845.5,296C 1849.13,299.762 1851.3,304.262 1852,309.5C 1851.72,515.83 1851.39,722.163 1851,928.5C 1851.98,964.127 1849.32,999.46 1843,1034.5C 1829.83,1097.38 1794,1141.88 1735.5,1168C 1709.39,1179.56 1682.06,1185.89 1653.5,1187C 1571.16,1187.5 1488.83,1187.83 1406.5,1188C 1399.94,1187.65 1395.44,1184.48 1393,1178.5C 1391.93,1172.73 1391.43,1166.9 1391.5,1161C 1391.12,1129.83 1391.62,1098.67 1393,1067.5C 1401.48,1020.02 1429.32,991.182 1476.5,981C 1496.81,979.784 1517.14,978.95 1537.5,978.5C 1560.83,979.529 1584.16,979.695 1607.5,979C 1627.51,976.16 1638.34,964.66 1640,944.5C 1641.34,932.551 1639.34,921.218 1634,910.5C 1628.39,903.568 1621.23,899.068 1612.5,897C 1571.52,895.955 1530.52,894.955 1489.5,894C 1431.89,886.785 1384.72,860.951 1348,816.5C 1324.98,786.124 1312.65,751.791 1311,713.5C 1308.55,577.845 1307.88,442.178 1309,306.5C 1309.1,298.934 1312.6,293.934 1319.5,291.5 Z"/></g>
</svg>
