<?xml version="1.0" encoding="UTF-8"?>
<!DOCTYPE svg PUBLIC "-//W3C//DTD SVG 1.1//EN" "http://www.w3.org/Graphics/SVG/1.1/DTD/svg11.dtd">
<svg xmlns="http://www.w3.org/2000/svg" version="1.1" width="400px" height="400px" style="shape-rendering:geometricPrecision; text-rendering:geometricPrecision; image-rendering:optimizeQuality; fill-rule:evenodd; clip-rule:evenodd" xmlns:xlink="http://www.w3.org/1999/xlink">
<g><path style="opacity:0.992" fill="#5f249f" d="M 188.5,-0.5 C 195.833,-0.5 203.167,-0.5 210.5,-0.5C 289.654,6.98553 346.821,46.3189 382,117.5C 391.79,140.324 397.623,163.991 399.5,188.5C 399.5,195.833 399.5,203.167 399.5,210.5C 392.014,289.654 352.681,346.821 281.5,382C 258.676,391.79 235.009,397.623 210.5,399.5C 203.167,399.5 195.833,399.5 188.5,399.5C 109.346,392.014 52.1791,352.681 17,281.5C 7.21015,258.676 1.37681,235.009 -0.5,210.5C -0.5,203.167 -0.5,195.833 -0.5,188.5C 6.98553,109.346 46.3189,52.1791 117.5,17C 140.324,7.21015 163.991,1.37681 188.5,-0.5 Z"/></g>
<g><path style="opacity:1" fill="#fefefe" d="M 286.5,163.5 C 277.167,163.5 267.833,163.5 258.5,163.5C 258.5,217.167 258.5,270.833 258.5,324.5C 258.141,326.371 257.141,327.871 255.5,329C 247.167,329.667 238.833,329.667 230.5,329C 223.962,326.301 220.295,321.468 219.5,314.5C 219.832,301.816 219.499,289.149 218.5,276.5C 217.893,276.624 217.56,276.957 217.5,277.5C 203.428,281.264 189.095,282.431 174.5,281C 156.135,276.629 143.302,265.796 136,248.5C 133.567,241.001 131.9,233.334 131,225.5C 130.5,205.169 130.333,184.836 130.5,164.5C 106.988,168.488 97.4877,158.822 102,135.5C 102.816,134.177 103.983,133.511 105.5,133.5C 139.835,133.667 174.168,133.5 208.5,133C 207.956,132.283 207.289,131.783 206.5,131.5C 184.562,110.731 162.729,89.731 141,68.5C 140.08,65.6917 140.913,63.5251 143.5,62C 150.167,60 156.833,58 163.5,56C 174.144,53.4374 182.977,56.2708 190,64.5C 209.313,87.3141 228.813,109.981 248.5,132.5C 259.151,133.332 269.818,133.832 280.5,134C 287.986,137.638 290.986,143.638 289.5,152C 289.333,155.167 289.167,158.333 289,161.5C 288.292,162.381 287.458,163.047 286.5,163.5 Z"/></g>
<g><path style="opacity:1" fill="#9169bd" d="M 206.5,131.5 C 207.289,131.783 207.956,132.283 208.5,133C 174.168,133.5 139.835,133.667 105.5,133.5C 139.167,132.833 172.833,132.167 206.5,131.5 Z"/></g>
<g><path style="opacity:1" fill="#5f259f" d="M 170.5,164.5 C 186.5,164.5 202.5,164.5 218.5,164.5C 218.5,190.833 218.5,217.167 218.5,243.5C 209.089,246.678 199.422,247.844 189.5,247C 178.017,244.51 171.85,237.344 171,225.5C 170.5,205.169 170.333,184.836 170.5,164.5 Z"/></g>
<g><path style="opacity:1" fill="#ab8ccc" d="M 170.5,164.5 C 186.658,163.504 202.991,163.17 219.5,163.5C 219.831,190.339 219.498,217.005 218.5,243.5C 218.5,217.167 218.5,190.833 218.5,164.5C 202.5,164.5 186.5,164.5 170.5,164.5 Z"/></g>
<g><path style="opacity:1" fill="#9e7bc5" d="M 286.5,163.5 C 277.682,164.493 268.682,164.827 259.5,164.5C 259.832,218.003 259.499,271.336 258.5,324.5C 258.5,270.833 258.5,217.167 258.5,163.5C 267.833,163.5 277.167,163.5 286.5,163.5 Z"/></g>
<g><path style="opacity:1" fill="#a483c8" d="M 217.5,277.5 C 217.56,276.957 217.893,276.624 218.5,276.5C 219.499,289.149 219.832,301.816 219.5,314.5C 218.833,302.167 218.167,289.833 217.5,277.5 Z"/></g>
</svg>
