<?xml version="1.0" encoding="UTF-8"?>
<!DOCTYPE svg PUBLIC "-//W3C//DTD SVG 1.1//EN" "http://www.w3.org/Graphics/SVG/1.1/DTD/svg11.dtd">
<svg xmlns="http://www.w3.org/2000/svg" version="1.1" width="512px" height="512px" style="shape-rendering:geometricPrecision; text-rendering:geometricPrecision; image-rendering:optimizeQuality; fill-rule:evenodd; clip-rule:evenodd" xmlns:xlink="http://www.w3.org/1999/xlink">
<g><path style="opacity:0.994" fill="#6739b7" d="M 240.5,0.5 C 330.848,-1.7337 404.015,32.2663 460,102.5C 512.584,177.926 523.918,259.259 494,346.5C 460.851,427.649 402.018,479.816 317.5,503C 218.175,523.887 133.675,497.72 64,424.5C 6.73252,355.533 -11.6008,277.199 9,189.5C 31.7293,112.108 79.5626,56.2746 152.5,22C 180.762,9.91958 210.095,2.75291 240.5,0.5 Z"/></g>
<g><path style="opacity:1" fill="#fdfcfe" d="M 296.5,416.5 C 296.833,390.825 296.5,365.158 295.5,339.5C 294.893,339.624 294.56,339.957 294.5,340.5C 288.514,349.174 280.181,354.34 269.5,356C 256.5,356.667 243.5,356.667 230.5,356C 204.193,349.694 189.026,333.194 185,306.5C 184.667,272.833 184.333,239.167 184,205.5C 183.5,205 183,204.5 182.5,204C 172.401,203.951 162.401,203.284 152.5,202C 151.299,201.097 150.465,199.931 150,198.5C 149.333,190.5 149.333,182.5 150,174.5C 150.5,172.667 151.667,171.5 153.5,171C 194.167,170.667 234.833,170.333 275.5,170C 246.94,139.97 222.94,106.803 203.5,70.5C 203.406,68.0884 204.406,66.255 206.5,65C 217.167,64.3333 227.833,64.3333 238.5,65C 240.96,66.4578 243.127,68.2911 245,70.5C 265.043,103.868 285.877,136.701 307.5,169C 327.411,170.31 347.411,170.977 367.5,171C 368.931,171.465 370.097,172.299 371,173.5C 371.667,182.167 371.667,190.833 371,199.5C 370.167,200.333 369.333,201.167 368.5,202C 357.02,203.135 345.52,203.968 334,204.5C 333.667,275.5 333.333,346.5 333,417.5C 332.065,420.102 330.232,421.602 327.5,422C 318.5,422.667 309.5,422.667 300.5,422C 298.072,420.982 296.738,419.148 296.5,416.5 Z"/></g>
<g><path style="opacity:1" fill="#6739b7" d="M 222.5,203.5 C 246.502,203.333 270.502,203.5 294.5,204C 295,204.5 295.5,205 296,205.5C 296.667,235.833 296.667,266.167 296,296.5C 294.053,311.113 285.886,319.946 271.5,323C 261.5,323.667 251.5,323.667 241.5,323C 229.772,320.049 223.272,312.549 222,300.5C 221.175,268.095 221.341,235.762 222.5,203.5 Z"/></g>
<g><path style="opacity:1" fill="#9778ce" d="M 294.5,340.5 C 294.56,339.957 294.893,339.624 295.5,339.5C 296.5,365.158 296.833,390.825 296.5,416.5C 295.833,391.167 295.167,365.833 294.5,340.5 Z"/></g>
</svg>
