<?xml version="1.0" encoding="UTF-8"?>
<!DOCTYPE svg PUBLIC "-//W3C//DTD SVG 1.1//EN" "http://www.w3.org/Graphics/SVG/1.1/DTD/svg11.dtd">
<svg xmlns="http://www.w3.org/2000/svg" version="1.1" width="512px" height="512px" style="shape-rendering:geometricPrecision; text-rendering:geometricPrecision; image-rendering:optimizeQuality; fill-rule:evenodd; clip-rule:evenodd" xmlns:xlink="http://www.w3.org/1999/xlink">
<g><path style="opacity:0.96" fill="#000000" d="M 490.5,-0.5 C 494.167,-0.5 497.833,-0.5 501.5,-0.5C 505.833,1.83333 509.167,5.16667 511.5,9.5C 511.5,13.1667 511.5,16.8333 511.5,20.5C 446.262,182.36 381.096,344.36 316,506.5C 314.035,508.55 311.868,510.217 309.5,511.5C 305.833,511.5 302.167,511.5 298.5,511.5C 295.614,510.121 293.114,508.121 291,505.5C 259.728,441.956 228.728,378.289 198,314.5C 133.941,282.888 69.7746,251.388 5.5,220C 2.84741,217.866 0.847413,215.366 -0.5,212.5C -0.5,208.833 -0.5,205.167 -0.5,201.5C 1.71515,196.793 5.38182,193.627 10.5,192C 170.719,128.1 330.719,63.9334 490.5,-0.5 Z M 429.5,58.5 C 355.188,133.479 280.521,208.146 205.5,282.5C 154.955,257.728 104.289,233.228 53.5,209C 178.624,158.347 303.958,108.18 429.5,58.5 Z M 452.5,81.5 C 402.82,207.042 352.653,332.376 302,457.5C 277.772,406.711 253.272,356.045 228.5,305.5C 302.854,230.479 377.521,155.812 452.5,81.5 Z"/></g>
</svg>
