<?xml version="1.0" encoding="UTF-8"?>
<!DOCTYPE svg PUBLIC "-//W3C//DTD SVG 1.1//EN" "http://www.w3.org/Graphics/SVG/1.1/DTD/svg11.dtd">
<svg xmlns="http://www.w3.org/2000/svg" version="1.1" width="512px" height="512px" style="shape-rendering:geometricPrecision; text-rendering:geometricPrecision; image-rendering:optimizeQuality; fill-rule:evenodd; clip-rule:evenodd" xmlns:xlink="http://www.w3.org/1999/xlink">
<g><path style="opacity:0.987" fill="#000000" d="M 235.5,-0.5 C 239.5,-0.5 243.5,-0.5 247.5,-0.5C 314.914,19.4412 382.581,38.9412 450.5,58C 462.897,60.2034 467.897,67.3701 465.5,79.5C 466.325,133.478 466.825,187.478 467,241.5C 482.5,248.333 492.167,260 496,276.5C 496.667,290.833 496.667,305.167 496,319.5C 494.167,324 491,327.167 486.5,329C 462.833,329.667 439.167,329.667 415.5,329C 410.162,326.993 406.996,323.159 406,317.5C 405.333,305.5 405.333,293.5 406,281.5C 408.047,262.966 417.547,249.966 434.5,242.5C 435.5,193.505 435.833,144.505 435.5,95.5C 415.871,100.991 396.204,106.324 376.5,111.5C 376.87,121.889 376.37,132.223 375,142.5C 371.847,152.642 366.014,160.809 357.5,167C 301.665,194.271 243.332,201.271 182.5,188C 161.684,183.619 142.017,176.285 123.5,166C 113.343,157.521 107.51,146.688 106,133.5C 105.5,126.174 105.334,118.841 105.5,111.5C 77.2311,104.244 49.2311,96.0769 21.5,87C 13.5,78.6667 13.5,70.3333 21.5,62C 92.8379,40.8361 164.171,20.0028 235.5,-0.5 Z"/></g>
<g><path style="opacity:0.982" fill="#000000" d="M 105.5,190.5 C 112.695,196.268 120.695,200.768 129.5,204C 185.608,226.676 243.274,231.676 302.5,219C 324.861,214.151 346.194,206.484 366.5,196C 369,194.167 371.5,192.333 374,190.5C 370.564,247.241 344.398,289.741 295.5,318C 238.561,342.679 188.394,332.845 145,288.5C 120.521,260.522 107.354,227.855 105.5,190.5 Z"/></g>
<g><path style="opacity:0.99" fill="#000000" d="M 225.5,511.5 C 158.5,511.5 91.5,511.5 24.5,511.5C 20.189,509.353 17.0223,506.02 15,501.5C 14.7142,436.885 41.8809,387.719 96.5,354C 113.532,344.323 131.699,337.823 151,334.5C 153.034,334.354 154.701,335.02 156,336.5C 179,371.167 202,405.833 225,440.5C 225.5,464.164 225.667,487.831 225.5,511.5 Z"/></g>
<g><path style="opacity:0.988" fill="#000000" d="M 455.5,511.5 C 388.5,511.5 321.5,511.5 254.5,511.5C 254.333,487.498 254.5,463.498 255,439.5C 278.393,405.105 301.393,370.438 324,335.5C 325.062,334.903 326.228,334.57 327.5,334.5C 387.709,346.217 429.876,380.217 454,436.5C 461.794,456.8 465.461,477.8 465,499.5C 463.806,505.181 460.64,509.181 455.5,511.5 Z M 329.5,421.5 C 341.221,421.113 352.887,421.613 364.5,423C 373.118,426.967 375.951,433.467 373,442.5C 370.051,447.728 365.551,450.561 359.5,451C 347.784,451.887 336.117,451.554 324.5,450C 313.351,442.144 312.685,433.477 322.5,424C 324.927,423.098 327.26,422.264 329.5,421.5 Z"/></g>
<g><path style="opacity:0.924" fill="#000000" d="M 204.5,356.5 C 215.999,359.249 227.665,360.583 239.5,360.5C 251.659,360.403 263.659,359.237 275.5,357C 264.053,374.935 252.053,392.435 239.5,409.5C 227.081,392.327 215.414,374.661 204.5,356.5 Z"/></g>
</svg>
