<?xml version="1.0" encoding="UTF-8"?>
<!DOCTYPE svg PUBLIC "-//W3C//DTD SVG 1.1//EN" "http://www.w3.org/Graphics/SVG/1.1/DTD/svg11.dtd">
<svg xmlns="http://www.w3.org/2000/svg" version="1.1" width="2560px" height="901px" style="shape-rendering:geometricPrecision; text-rendering:geometricPrecision; image-rendering:optimizeQuality; fill-rule:evenodd; clip-rule:evenodd" xmlns:xlink="http://www.w3.org/1999/xlink">
<g><path style="opacity:0.993" fill="#65676b" d="M 2024.5,-0.5 C 2069.17,-0.5 2113.83,-0.5 2158.5,-0.5C 2096.52,222.746 2034.86,446.079 1973.5,669.5C 1928.5,669.667 1883.5,669.5 1838.5,669C 1900.4,445.798 1962.4,222.632 2024.5,-0.5 Z"/></g>
<g><path style="opacity:0.993" fill="#277f3a" d="M 2242.5,522.5 C 2307.61,460.228 2372.94,398.061 2438.5,336C 2408.13,275.422 2377.63,214.922 2347,154.5C 2346.51,153.207 2346.34,151.873 2346.5,150.5C 2360.02,100.419 2373.85,50.4195 2388,0.5C 2444.76,112.345 2501.26,224.345 2557.5,336.5C 2439.18,448.655 2320.68,560.655 2202,672.5C 2215.48,622.577 2228.98,572.577 2242.5,522.5 Z"/></g>
<g><path style="opacity:0.994" fill="#65676b" d="M 237.5,1.5 C 282.167,1.5 326.833,1.5 371.5,1.5C 321.989,181.211 272.322,360.878 222.5,540.5C 399.835,540.833 577.168,540.5 754.5,539.5C 804.488,360.55 854.321,181.55 904,2.5C 948.761,1.50303 993.595,1.16969 1038.5,1.5C 980.978,210.235 923.145,418.902 865,627.5C 856.554,653.612 838.72,668.446 811.5,672C 577.833,672.667 344.167,672.667 110.5,672C 82.8823,668.214 68.2156,652.381 66.5,624.5C 66.9405,615.975 68.4405,607.642 71,599.5C 126.508,400.132 182.008,200.799 237.5,1.5 Z"/></g>
<g><path style="opacity:0.998" fill="#66676b" d="M 1127.5,1.5 C 1375.83,1.33333 1624.17,1.5 1872.5,2C 1898.41,6.91479 1911.75,22.5815 1912.5,49C 1912.24,58.0395 1910.74,66.8729 1908,75.5C 1882.98,166.255 1857.64,256.922 1832,347.5C 1816.17,380.668 1790,399.501 1753.5,404C 1552.17,404.5 1350.83,404.667 1149.5,404.5C 1125.47,493.607 1100.97,582.607 1076,671.5C 1031.24,672.497 986.405,672.83 941.5,672.5C 978.199,538.905 1015.2,405.405 1052.5,272C 1274.5,272.499 1496.5,272.499 1718.5,272C 1731.66,226.045 1744.66,180.045 1757.5,134C 1535.17,133.667 1312.83,133.333 1090.5,133C 1102.91,89.1825 1115.25,45.3492 1127.5,1.5 Z"/></g>
<g><path style="opacity:0.995" fill="#e8661c" d="M 2346.5,150.5 C 2346.34,151.873 2346.51,153.207 2347,154.5C 2377.63,214.922 2408.13,275.422 2438.5,336C 2372.94,398.061 2307.61,460.228 2242.5,522.5C 2189.54,572.296 2136.7,622.296 2084,672.5C 2083.83,671.833 2083.67,671.167 2083.5,670.5C 2145.23,447.471 2207.07,224.471 2269,1.5C 2269.67,0.166667 2270.33,0.166667 2271,1.5C 2295.69,51.5391 2320.85,101.206 2346.5,150.5 Z"/></g>
<g><path style="opacity:0.96" fill="#686969" d="M 845.5,770.5 C 846.931,770.881 847.764,771.881 848,773.5C 856.9,815.167 865.733,856.834 874.5,898.5C 867.167,898.5 859.833,898.5 852.5,898.5C 850.834,887.836 849.167,877.169 847.5,866.5C 831.83,866.333 816.163,866.5 800.5,867C 793.5,877.333 786.5,887.667 779.5,898C 772.508,898.5 765.508,898.666 758.5,898.5C 758.351,897.448 758.517,896.448 759,895.5C 788.054,853.953 816.887,812.286 845.5,770.5 Z M 836.5,811.5 C 839.064,823.998 841.398,836.664 843.5,849.5C 833.161,849.666 822.828,849.5 812.5,849C 821.145,836.867 829.145,824.367 836.5,811.5 Z"/></g>
<g><path style="opacity:0.961" fill="#686969" d="M 1722.5,900.5 C 1721.17,900.5 1719.83,900.5 1718.5,900.5C 1699.84,875.2 1680.67,850.2 1661,825.5C 1659,822.167 1657,818.833 1655,815.5C 1647.88,842.318 1641.21,869.318 1635,896.5C 1628.79,898.434 1622.29,899.101 1615.5,898.5C 1625.52,855.753 1635.85,813.086 1646.5,770.5C 1669.95,798.62 1692.28,827.62 1713.5,857.5C 1720.64,829.94 1727.31,802.273 1733.5,774.5C 1739.83,774.5 1746.17,774.5 1752.5,774.5C 1742.81,816.597 1732.81,858.597 1722.5,900.5 Z"/></g>
<g><path style="opacity:0.96" fill="#686969" d="M 2169.5,770.5 C 2170.75,770.577 2171.58,771.244 2172,772.5C 2181.03,814.474 2189.86,856.474 2198.5,898.5C 2191.47,898.83 2184.47,898.497 2177.5,897.5C 2175.18,887.23 2173.18,876.897 2171.5,866.5C 2155.82,866.167 2140.15,866.501 2124.5,867.5C 2117.38,877.58 2110.38,887.746 2103.5,898C 2096.48,898.831 2089.48,898.664 2082.5,897.5C 2111.77,855.283 2140.77,812.949 2169.5,770.5 Z M 2160.5,811.5 C 2161.22,811.918 2161.72,812.584 2162,813.5C 2163.27,825.532 2165.44,837.365 2168.5,849C 2157.83,849.667 2147.17,849.667 2136.5,849C 2145.64,837.207 2153.64,824.707 2160.5,811.5 Z"/></g>
<g><path style="opacity:0.958" fill="#686969" d="M 1034.5,900.5 C 1033.5,900.5 1032.5,900.5 1031.5,900.5C 1025.35,875.605 1019.52,850.605 1014,825.5C 1003.88,849.736 993.216,873.736 982,897.5C 975.924,898.476 969.758,898.81 963.5,898.5C 982.434,855.295 1001.93,812.295 1022,769.5C 1029.43,799.983 1036.1,830.649 1042,861.5C 1063,830.833 1084,800.167 1105,769.5C 1105.25,812.529 1104.75,855.529 1103.5,898.5C 1097.17,898.5 1090.83,898.5 1084.5,898.5C 1085.26,874.144 1086.1,849.81 1087,825.5C 1070.06,850.933 1052.56,875.933 1034.5,900.5 Z"/></g>
<g><path style="opacity:0.962" fill="#686969" d="M 222.5,900.5 C 221.167,900.5 219.833,900.5 218.5,900.5C 199.548,875.709 180.382,851.042 161,826.5C 158.268,822.759 155.934,818.759 154,814.5C 147.461,842.196 140.794,869.863 134,897.5C 127.924,898.476 121.758,898.81 115.5,898.5C 124.346,859.114 133.513,819.781 143,780.5C 143.561,776.905 144.728,773.572 146.5,770.5C 163.989,792.794 181.489,815.128 199,837.5C 204.059,844.228 208.726,851.228 213,858.5C 219.824,830.87 226.491,803.203 233,775.5C 239.444,774.19 245.944,774.19 252.5,775.5C 242.026,817.06 232.026,858.727 222.5,900.5 Z"/></g>
<g><path style="opacity:0.959" fill="#686969" d="M 1314.5,900.5 C 1313.17,900.5 1311.83,900.5 1310.5,900.5C 1293.16,877.169 1275.33,854.169 1257,831.5C 1252.59,826.344 1248.92,820.677 1246,814.5C 1239.18,842.443 1232.68,870.443 1226.5,898.5C 1220.17,898.5 1213.83,898.5 1207.5,898.5C 1216.89,855.587 1227.23,812.921 1238.5,770.5C 1257.49,794.332 1276.33,818.332 1295,842.5C 1298.83,847.497 1302.17,852.83 1305,858.5C 1311.67,831.172 1318.33,803.838 1325,776.5C 1328.06,775.217 1331.4,774.55 1335,774.5C 1338.17,774.833 1341.33,775.167 1344.5,775.5C 1334.34,817.134 1324.34,858.8 1314.5,900.5 Z"/></g>
<g><path style="opacity:0.964" fill="#686969" d="M 1470.5,900.5 C 1461.83,900.5 1453.17,900.5 1444.5,900.5C 1430.83,896.155 1424.83,886.822 1426.5,872.5C 1431.83,870.167 1437.17,867.833 1442.5,865.5C 1444.55,878.025 1451.88,883.525 1464.5,882C 1478.14,879.369 1484.64,871.202 1484,857.5C 1482.94,854.438 1481.11,851.938 1478.5,850C 1470.23,845.396 1462.23,840.396 1454.5,835C 1442.84,824.853 1440.34,812.687 1447,798.5C 1455.43,780.948 1469.43,772.282 1489,772.5C 1499.15,771.389 1507.82,774.389 1515,781.5C 1518.16,785.303 1518.99,789.469 1517.5,794C 1512.29,796.773 1506.95,799.273 1501.5,801.5C 1495.77,790.211 1487.11,787.378 1475.5,793C 1463.04,801.992 1462.71,811.325 1474.5,821C 1484.49,825.992 1493.65,832.158 1502,839.5C 1507.61,850.212 1507.94,861.212 1503,872.5C 1496.02,886.392 1485.19,895.725 1470.5,900.5 Z"/></g>
<g><path style="opacity:0.965" fill="#686969" d="M 2279.5,900.5 C 2269.5,900.5 2259.5,900.5 2249.5,900.5C 2222.05,891.654 2210.21,872.654 2214,843.5C 2220.64,809.194 2240.47,786.361 2273.5,775C 2287.18,771.694 2300.84,771.694 2314.5,775C 2320.25,777.289 2325.42,780.455 2330,784.5C 2328.97,791.636 2327.13,798.636 2324.5,805.5C 2309.1,791.071 2291.43,787.571 2271.5,795C 2243.67,809.155 2232.17,831.655 2237,862.5C 2242.87,875.529 2253.03,882.196 2267.5,882.5C 2282.93,881.2 2296.76,875.866 2309,866.5C 2308.44,874.756 2306.6,882.756 2303.5,890.5C 2295.88,894.984 2287.88,898.317 2279.5,900.5 Z"/></g>
<g><path style="opacity:0.961" fill="#686969" d="M 55.5,900.5 C 44.8333,900.5 34.1667,900.5 23.5,900.5C 11.3475,897.68 3.34746,890.347 -0.5,878.5C -0.5,872.167 -0.5,865.833 -0.5,859.5C 6.40251,831.341 13.0692,803.007 19.5,774.5C 26.1667,774.5 32.8333,774.5 39.5,774.5C 33.0092,803.464 26.6759,832.464 20.5,861.5C 21.3962,875.724 29.0629,882.724 43.5,882.5C 63.4468,881.39 75.6135,871.057 80,851.5C 85.8544,826.082 92.0211,800.749 98.5,775.5C 105.134,774.503 111.8,774.17 118.5,774.5C 112.477,802.26 105.977,829.927 99,857.5C 92.5176,880.15 78.0176,894.484 55.5,900.5 Z"/></g>
<g><path style="opacity:0.952" fill="#686969" d="M 278.5,774.5 C 285.532,774.17 292.532,774.503 299.5,775.5C 289.477,816.111 279.644,856.778 270,897.5C 263.256,898.479 256.422,898.812 249.5,898.5C 259.167,857.165 268.834,815.832 278.5,774.5 Z"/></g>
<g><path style="opacity:0.953" fill="#686969" d="M 326.5,774.5 C 348.833,774.5 371.167,774.5 393.5,774.5C 392.641,780.27 391.308,785.937 389.5,791.5C 373.833,792.167 358.167,792.833 342.5,793.5C 339.693,803.06 337.36,812.727 335.5,822.5C 351.181,822.167 366.848,822.501 382.5,823.5C 380.692,829.063 379.359,834.73 378.5,840.5C 362.5,840.5 346.5,840.5 330.5,840.5C 326.167,859.833 321.833,879.167 317.5,898.5C 310.468,898.83 303.468,898.497 296.5,897.5C 306.35,856.434 316.35,815.434 326.5,774.5 Z"/></g>
<g><path style="opacity:0.954" fill="#686969" d="M 413.5,774.5 C 420.5,774.5 427.5,774.5 434.5,774.5C 424.518,815.762 414.851,857.096 405.5,898.5C 398.5,898.5 391.5,898.5 384.5,898.5C 394.482,857.238 404.149,815.904 413.5,774.5 Z"/></g>
<g><path style="opacity:0.958" fill="#686969" d="M 461.5,774.5 C 483.833,774.5 506.167,774.5 528.5,774.5C 527.865,780.513 526.531,786.346 524.5,792C 508.823,792.167 493.156,792.667 477.5,793.5C 475.008,803.134 472.675,812.8 470.5,822.5C 486.181,822.167 501.848,822.501 517.5,823.5C 515.911,829.112 514.578,834.778 513.5,840.5C 497.5,840.5 481.5,840.5 465.5,840.5C 463.046,853.48 460.046,866.313 456.5,879C 472.163,879.5 487.83,879.667 503.5,879.5C 502.325,885.866 500.992,892.2 499.5,898.5C 476.824,898.833 454.157,898.5 431.5,897.5C 441.665,856.508 451.665,815.508 461.5,774.5 Z"/></g>
<g><path style="opacity:0.962" fill="#686969" d="M 549.5,774.5 C 567.182,774.438 584.848,774.938 602.5,776C 626.696,779.037 639.362,792.87 640.5,817.5C 639.456,842.413 630.123,863.579 612.5,881C 602.242,890.127 590.242,895.46 576.5,897C 557.846,898.632 539.179,898.798 520.5,897.5C 530.642,856.6 540.309,815.6 549.5,774.5 Z M 566.5,793.5 C 577.203,793.262 587.87,793.762 598.5,795C 611.794,798.729 618.461,807.563 618.5,821.5C 614.354,866.31 590.021,885.31 545.5,878.5C 552.35,850.101 559.35,821.767 566.5,793.5 Z"/></g>
<g><path style="opacity:0.957" fill="#686969" d="M 723.5,774.5 C 735.171,774.333 746.838,774.5 758.5,775C 767.18,774.503 775.18,776.503 782.5,781C 786.983,786.108 789.316,792.108 789.5,799C 788.93,813.471 783.263,825.471 772.5,835C 767.655,838.422 762.322,840.755 756.5,842C 746.541,843.256 736.541,843.756 726.5,843.5C 722.483,861.57 718.149,879.57 713.5,897.5C 707.202,898.496 700.868,898.83 694.5,898.5C 704.422,857.224 714.089,815.89 723.5,774.5 Z M 740.5,792.5 C 746.162,792.969 751.829,793.469 757.5,794C 765.771,795.475 768.938,800.308 767,808.5C 765.473,818.027 759.973,823.527 750.5,825C 744.493,825.501 738.493,826.001 732.5,826.5C 734.788,815.055 737.455,803.721 740.5,792.5 Z"/></g>
<g><path style="opacity:0.952" fill="#686969" d="M 890.5,774.5 C 897.755,774.187 904.921,774.52 912,775.5C 918.065,791.694 923.731,808.028 929,824.5C 942.792,807.705 956.959,791.205 971.5,775C 978.192,774.169 984.858,774.336 991.5,775.5C 973.562,797.608 955.062,819.275 936,840.5C 930.54,859.672 925.707,879.006 921.5,898.5C 914.833,898.5 908.167,898.5 901.5,898.5C 905.514,879.777 909.847,861.11 914.5,842.5C 906.294,819.879 898.294,797.213 890.5,774.5 Z"/></g>
<g><path style="opacity:0.959" fill="#686969" d="M 1147.5,774.5 C 1170.17,774.5 1192.83,774.5 1215.5,774.5C 1214.17,780.5 1212.83,786.5 1211.5,792.5C 1195.5,792.5 1179.5,792.5 1163.5,792.5C 1161.5,802.496 1159.5,812.496 1157.5,822.5C 1172.83,822.5 1188.17,822.5 1203.5,822.5C 1202.87,828.51 1201.54,834.343 1199.5,840C 1183.84,840.5 1168.17,840.667 1152.5,840.5C 1149.34,853.464 1146.34,866.464 1143.5,879.5C 1159.18,879.167 1174.85,879.501 1190.5,880.5C 1188.53,886.368 1187.2,892.368 1186.5,898.5C 1163.83,898.5 1141.17,898.5 1118.5,898.5C 1128.17,857.165 1137.83,815.832 1147.5,774.5 Z"/></g>
<g><path style="opacity:0.949" fill="#686969" d="M 1358.5,774.5 C 1386.17,774.5 1413.83,774.5 1441.5,774.5C 1440.64,780.27 1439.31,785.937 1437.5,791.5C 1426.85,792.499 1416.19,792.832 1405.5,792.5C 1397.66,827.553 1389.49,862.553 1381,897.5C 1374.26,898.479 1367.42,898.812 1360.5,898.5C 1368.36,863.396 1376.69,828.396 1385.5,793.5C 1374.85,792.668 1364.18,792.168 1353.5,792C 1355.25,786.183 1356.91,780.349 1358.5,774.5 Z"/></g>
<g><path style="opacity:0.952" fill="#686969" d="M 1597.5,774.5 C 1604.53,774.17 1611.53,774.503 1618.5,775.5C 1608.35,816.083 1598.52,856.749 1589,897.5C 1582.26,898.479 1575.42,898.812 1568.5,898.5C 1578.17,857.168 1587.83,815.835 1597.5,774.5 Z"/></g>
<g><path style="opacity:0.947" fill="#686969" d="M 1766.5,774.5 C 1794.17,774.5 1821.83,774.5 1849.5,774.5C 1848.82,780.553 1847.82,786.553 1846.5,792.5C 1835.81,792.168 1825.15,792.501 1814.5,793.5C 1805.69,828.396 1797.36,863.396 1789.5,898.5C 1782.47,898.83 1775.47,898.497 1768.5,897.5C 1777.31,862.604 1785.64,827.604 1793.5,792.5C 1783.17,792.5 1772.83,792.5 1762.5,792.5C 1763.71,786.467 1765.04,780.467 1766.5,774.5 Z"/></g>
<g><path style="opacity:0.958" fill="#686969" d="M 1863.5,774.5 C 1886.17,774.5 1908.83,774.5 1931.5,774.5C 1930.33,780.199 1928.99,785.866 1927.5,791.5C 1911.84,792.333 1896.18,792.833 1880.5,793C 1877.78,802.723 1875.44,812.556 1873.5,822.5C 1888.83,822.5 1904.17,822.5 1919.5,822.5C 1918.5,828.5 1917.5,834.5 1916.5,840.5C 1900.5,840.5 1884.5,840.5 1868.5,840.5C 1865.82,853.236 1862.82,865.902 1859.5,878.5C 1875.17,879.167 1890.83,879.833 1906.5,880.5C 1904.85,886.435 1903.52,892.435 1902.5,898.5C 1879.83,898.5 1857.17,898.5 1834.5,898.5C 1844.42,857.224 1854.09,815.89 1863.5,774.5 Z"/></g>
<g><path style="opacity:0.96" fill="#686969" d="M 1952.5,774.5 C 1967.19,774.251 1981.86,774.751 1996.5,776C 2009.1,778.947 2015.44,786.947 2015.5,800C 2013.84,823.15 2001.84,837.65 1979.5,843.5C 1988.5,861.5 1997.5,879.5 2006.5,897.5C 1998.61,898.814 1990.77,898.814 1983,897.5C 1974.42,879.346 1965.59,861.346 1956.5,843.5C 1951.46,861.376 1946.79,879.376 1942.5,897.5C 1936.2,898.496 1929.87,898.83 1923.5,898.5C 1933.17,857.168 1942.83,815.835 1952.5,774.5 Z M 1968.5,792.5 C 1975.68,792.75 1982.68,793.916 1989.5,796C 1993.05,799.452 1994.21,803.618 1993,808.5C 1992.23,815.219 1989.06,820.386 1983.5,824C 1975.97,826.199 1968.3,827.199 1960.5,827C 1963.71,815.646 1966.38,804.146 1968.5,792.5 Z"/></g>
<g><path style="opacity:0.953" fill="#686969" d="M 2046.5,774.5 C 2068.83,774.5 2091.17,774.5 2113.5,774.5C 2112.56,780.442 2111.22,786.276 2109.5,792C 2093.82,792.167 2078.16,792.667 2062.5,793.5C 2060.01,803.134 2057.67,812.8 2055.5,822.5C 2071.18,822.167 2086.85,822.501 2102.5,823.5C 2100.69,829.062 2099.36,834.728 2098.5,840.5C 2082.5,840.5 2066.5,840.5 2050.5,840.5C 2046.17,859.833 2041.83,879.167 2037.5,898.5C 2030.47,898.83 2023.47,898.497 2016.5,897.5C 2026.5,856.471 2036.5,815.471 2046.5,774.5 Z"/></g>
<g><path style="opacity:0.958" fill="#686969" d="M 2355.5,774.5 C 2377.83,774.5 2400.17,774.5 2422.5,774.5C 2421.64,780.27 2420.31,785.937 2418.5,791.5C 2402.83,792.167 2387.17,792.833 2371.5,793.5C 2368.78,803.081 2366.45,812.748 2364.5,822.5C 2380.18,822.167 2395.85,822.501 2411.5,823.5C 2409.69,829.063 2408.36,834.73 2407.5,840.5C 2391.5,840.5 2375.5,840.5 2359.5,840.5C 2357.13,853.307 2354.13,865.974 2350.5,878.5C 2366.15,879.499 2381.82,879.833 2397.5,879.5C 2396.17,885.833 2394.83,892.167 2393.5,898.5C 2370.82,898.833 2348.16,898.5 2325.5,897.5C 2335.35,856.434 2345.35,815.434 2355.5,774.5 Z"/></g>
</svg>
