<?xml version="1.0" encoding="UTF-8"?>
<!DOCTYPE svg PUBLIC "-//W3C//DTD SVG 1.1//EN" "http://www.w3.org/Graphics/SVG/1.1/DTD/svg11.dtd">
<svg xmlns="http://www.w3.org/2000/svg" version="1.1" width="220px" height="81px" style="shape-rendering:geometricPrecision; text-rendering:geometricPrecision; image-rendering:optimizeQuality; fill-rule:evenodd; clip-rule:evenodd" xmlns:xlink="http://www.w3.org/1999/xlink">
<g><path style="opacity:1" fill="#fafafa" d="M -0.5,-0.5 C 72.8333,-0.5 146.167,-0.5 219.5,-0.5C 219.5,26.5 219.5,53.5 219.5,80.5C 146.167,80.5 72.8333,80.5 -0.5,80.5C -0.5,53.5 -0.5,26.5 -0.5,-0.5 Z"/></g>
<g><path style="opacity:1" fill="#aaaaad" d="M 21.5,3.5 C 25.0187,2.1923 28.6853,2.1923 32.5,3.5C 32.3764,4.10667 32.0431,4.44001 31.5,4.5C 28.3752,3.52056 25.0419,3.18723 21.5,3.5 Z"/></g>
<g><path style="opacity:1" fill="#6f7074" d="M 21.5,3.5 C 25.0419,3.18723 28.3752,3.52056 31.5,4.5C 27.9673,18.9642 23.9673,33.2975 19.5,47.5C 34.8189,48.4994 50.1522,48.8327 65.5,48.5C 69.9611,33.6578 73.9611,18.6578 77.5,3.5C 81.1817,3.3347 84.8484,3.50137 88.5,4C 83.7508,21.4938 78.9175,38.9938 74,56.5C 73.1667,57.3333 72.3333,58.1667 71.5,59C 50.8333,59.6667 30.1667,59.6667 9.5,59C 7.55611,56.8471 7.05611,54.3471 8,51.5C 12.2146,35.2935 16.7146,19.2935 21.5,3.5 Z"/></g>
<g><path style="opacity:1" fill="#717175" d="M 96.5,2.5 C 118.169,2.33337 139.836,2.50004 161.5,3C 162.116,4.40019 162.449,5.90019 162.5,7.5C 160.805,15.9467 158.638,24.28 156,32.5C 154.833,33.6667 153.667,34.8333 152.5,36C 134.5,36.3333 116.5,36.6667 98.5,37C 96.2684,44.4257 94.2684,51.9257 92.5,59.5C 88.8333,59.5 85.1667,59.5 81.5,59.5C 84.4959,48.1843 87.4959,36.8509 90.5,25.5C 109.5,25.5 128.5,25.5 147.5,25.5C 148.5,21.5 149.5,17.5 150.5,13.5C 131.833,13.5 113.167,13.5 94.5,13.5C 95.0078,9.80258 95.6745,6.13591 96.5,2.5 Z"/></g>
<g><path style="opacity:1" fill="#6e6f73" d="M 173.5,2.5 C 176.898,2.17964 180.232,2.51298 183.5,3.5C 178.81,21.5935 173.81,39.5935 168.5,57.5C 165.232,58.487 161.898,58.8204 158.5,58.5C 159.187,52.7505 160.353,47.0839 162,41.5C 166.025,28.5302 169.858,15.5302 173.5,2.5 Z"/></g>
<g><path style="opacity:1" fill="#158c46" d="M 191.5,47.5 C 197.009,41.8248 202.342,35.9915 207.5,30C 205.018,24.8711 202.684,19.7044 200.5,14.5C 201.554,10.8361 202.721,7.16943 204,3.5C 208.365,12.3957 212.865,21.2291 217.5,30C 208.679,40.1544 199.179,49.6544 189,58.5C 189.341,54.7951 190.175,51.1284 191.5,47.5 Z"/></g>
<g><path style="opacity:1" fill="#f37a23" d="M 200.5,14.5 C 202.684,19.7044 205.018,24.8711 207.5,30C 202.342,35.9915 197.009,41.8248 191.5,47.5C 186.908,50.5859 182.742,54.2525 179,58.5C 183.523,40.0782 188.523,21.7449 194,3.5C 195.689,7.55994 197.856,11.2266 200.5,14.5 Z"/></g>
<g><path style="opacity:1" fill="#525355" d="M 201.5,68.5 C 203.199,68.3398 204.866,68.5065 206.5,69C 200.676,69.9153 200.343,71.2487 205.5,73C 203.096,73.1955 201.429,74.3622 200.5,76.5C 204.374,78.0025 204.041,78.6691 199.5,78.5C 199.54,75.0124 200.207,71.6791 201.5,68.5 Z"/></g>
<g><path style="opacity:1" fill="#606062" d="M 190.5,76.5 C 188.926,73.5696 189.592,71.0696 192.5,69C 194.579,68.1923 196.579,68.359 198.5,69.5C 193.565,68.7442 190.898,71.0775 190.5,76.5 Z"/></g>
<g><path style="opacity:1" fill="#6a6b6c" d="M 86.5,69.5 C 88.6138,70.3602 89.7805,72.0268 90,74.5C 91.7134,73.1218 93.0467,71.4552 94,69.5C 94.6667,72.5 94.6667,75.5 94,78.5C 93.6667,76.8333 93.3333,75.1667 93,73.5C 91.647,74.6853 90.4803,76.0186 89.5,77.5C 88.4164,76.3349 87.5831,75.0016 87,73.5C 86.2515,75.3325 85.2515,76.9991 84,78.5C 84.316,75.3814 85.1493,72.3814 86.5,69.5 Z"/></g>
<g><path style="opacity:1" fill="#515254" d="M 125.5,68.5 C 126.978,68.238 128.311,68.5713 129.5,69.5C 127.934,68.9394 126.601,69.6061 125.5,71.5C 128.144,72.741 128.977,74.741 128,77.5C 126.035,78.885 124.202,78.7184 122.5,77C 124.256,76.7978 125.922,76.2978 127.5,75.5C 124.75,73.6882 124.083,71.3549 125.5,68.5 Z"/></g>
<g><path style="opacity:1" fill="#57585a" d="M 136.5,68.5 C 137.239,68.369 137.906,68.5357 138.5,69C 137.119,75.0199 136.453,74.8532 136.5,68.5 Z"/></g>
<g><path style="opacity:1" fill="#717274" d="M 147.5,74.5 C 147.201,72.396 147.534,70.396 148.5,68.5C 149.439,70.6921 149.105,72.6921 147.5,74.5 Z"/></g>
<g><path style="opacity:1" fill="#626364" d="M 40.5,68.5 C 46.1667,68.6636 46.5,68.9969 41.5,69.5C 41.5,70.5 41.5,71.5 41.5,72.5C 45.1716,73.0447 44.8383,73.3781 40.5,73.5C 40.5,74.8333 40.5,76.1667 40.5,77.5C 41.552,77.3505 42.552,77.5172 43.5,78C 41.8659,78.4935 40.1992,78.6602 38.5,78.5C 38.7878,75.0611 39.4544,71.7278 40.5,68.5 Z"/></g>
<g><path style="opacity:1" fill="#636466" d="M 98.5,68.5 C 104.167,68.6636 104.5,68.9969 99.5,69.5C 99.5,70.5 99.5,71.5 99.5,72.5C 103.172,73.0447 102.838,73.3781 98.5,73.5C 98.5,74.8333 98.5,76.1667 98.5,77.5C 99.552,77.3505 100.552,77.5172 101.5,78C 99.8659,78.4935 98.1992,78.6602 96.5,78.5C 96.5399,75.0124 97.2066,71.6791 98.5,68.5 Z"/></g>
<g><path style="opacity:1" fill="#656668" d="M 166.5,68.5 C 168.977,68.0508 170.977,68.7175 172.5,70.5C 171.125,72.3761 169.958,74.3761 169,76.5C 168.692,75.6919 168.192,75.0253 167.5,74.5C 166.833,75.8333 166.167,77.1667 165.5,78.5C 165.167,78 164.833,77.5 164.5,77C 165.994,74.3612 166.661,71.5279 166.5,68.5 Z"/></g>
<g><path style="opacity:1" fill="#dbdbdb" d="M 168.5,69.5 C 170.048,69.8212 170.715,70.8212 170.5,72.5C 167.752,72.5983 167.086,71.5983 168.5,69.5 Z"/></g>
<g><path style="opacity:1" fill="#4c4d4f" d="M 17.5,74.5 C 16.5178,73.8592 15.5178,73.1925 14.5,72.5C 13.6667,74.5 12.8333,76.5 12,78.5C 11.862,75.3791 12.5287,72.3791 14,69.5C 15.8022,70.7893 16.9688,72.4559 17.5,74.5 Z"/></g>
<g><path style="opacity:1" fill="#47484a" d="M 29.5,68.5 C 35.8532,68.4526 36.0199,69.1192 30,70.5C 29.8333,70.8333 29.6667,71.1667 29.5,71.5C 34.7208,72.6244 34.7208,73.4577 29.5,74C 28.8095,75.0674 28.3095,76.2341 28,77.5C 27.6968,74.3764 28.1968,71.3764 29.5,68.5 Z"/></g>
<g><path style="opacity:1" fill="#6d6e70" d="M 36.5,68.5 C 37.3576,71.8198 36.8576,75.1531 35,78.5C 34.537,75.0196 35.037,71.6863 36.5,68.5 Z"/></g>
<g><path style="opacity:1" fill="#565759" d="M 66.5,72.5 C 65.713,74.1042 64.3797,74.7709 62.5,74.5C 62.6882,76.1033 62.1882,77.4366 61,78.5C 60.8333,78 60.6667,77.5 60.5,77C 61.6868,74.2764 62.3535,71.4431 62.5,68.5C 64.9775,68.0508 66.9775,68.7175 68.5,70.5C 68.1445,71.5223 67.4778,72.189 66.5,72.5 Z"/></g>
<g><path style="opacity:1" fill="#e2e2e2" d="M 66.5,72.5 C 65.5,72.5 64.5,72.5 63.5,72.5C 63.5,71.5 63.5,70.5 63.5,69.5C 64.5,69.5 65.5,69.5 66.5,69.5C 66.5,70.5 66.5,71.5 66.5,72.5 Z"/></g>
<g><path style="opacity:1" fill="#858587" d="M 71.5,69.5 C 72.3764,69.3691 73.0431,69.7025 73.5,70.5C 74.1667,72.8333 74.8333,75.1667 75.5,77.5C 75.1667,77.8333 74.8333,78.1667 74.5,78.5C 71.959,75.8997 69.459,75.8997 67,78.5C 67.9261,75.3141 69.4261,72.3141 71.5,69.5 Z"/></g>
<g><path style="opacity:1" fill="#5d5e60" d="M 77.5,68.5 C 78.5585,69.6002 79.3918,70.9336 80,72.5C 81.353,71.3147 82.5197,69.9814 83.5,68.5C 83.8333,68.6667 84.1667,68.8333 84.5,69C 82.2419,71.5849 80.4086,74.4182 79,77.5C 78.4978,74.4869 77.9978,71.4869 77.5,68.5 Z"/></g>
<g><path style="opacity:1" fill="#58595b" d="M 110.5,74.5 C 109.518,73.8592 108.518,73.1925 107.5,72.5C 106.573,74.1128 105.739,75.7795 105,77.5C 104.277,74.6132 104.777,71.9465 106.5,69.5C 108.611,70.6046 109.945,72.2712 110.5,74.5 Z"/></g>
<g><path style="opacity:1" fill="#7a7b7c" d="M 24.5,68.5 C 25.3764,68.3691 26.0431,68.7025 26.5,69.5C 25.8741,72.637 24.8741,75.637 23.5,78.5C 23.1667,78.1667 22.8333,77.8333 22.5,77.5C 23.6416,74.6008 24.3083,71.6008 24.5,68.5 Z"/></g>
<g><path style="opacity:1" fill="#606163" d="M 110.5,74.5 C 112.247,73.0193 113.414,71.0193 114,68.5C 114.602,71.6622 114.102,74.6622 112.5,77.5C 111.081,76.9953 110.415,75.9953 110.5,74.5 Z"/></g>
<g><path style="opacity:1" fill="#767678" d="M 116.5,69.5 C 118.288,68.3775 120.288,68.2109 122.5,69C 121.584,69.3742 120.75,69.8742 120,70.5C 119.73,73.3617 118.896,76.0284 117.5,78.5C 117.167,78.1667 116.833,77.8333 116.5,77.5C 117.167,75.1667 117.833,72.8333 118.5,70.5C 118.043,69.7025 117.376,69.3691 116.5,69.5 Z"/></g>
<g><path style="opacity:1" fill="#535456" d="M 142.5,71.5 C 143.922,72.925 145.589,73.925 147.5,74.5C 147.649,75.552 147.483,76.552 147,77.5C 144.873,75.8863 143.373,73.8863 142.5,71.5 Z"/></g>
<g><path style="opacity:1" fill="#555657" d="M 159.5,68.5 C 165.167,68.6636 165.5,68.9969 160.5,69.5C 160.5,70.5 160.5,71.5 160.5,72.5C 164.172,73.0447 163.838,73.3781 159.5,73.5C 159.5,74.8333 159.5,76.1667 159.5,77.5C 160.552,77.3505 161.552,77.5172 162.5,78C 160.866,78.4935 159.199,78.6602 157.5,78.5C 157.851,75.0968 158.518,71.7635 159.5,68.5 Z"/></g>
<g><path style="opacity:1" fill="#515254" d="M 142.5,71.5 C 141.132,73.5643 140.132,75.8976 139.5,78.5C 139.009,75.4399 139.676,72.4399 141.5,69.5C 142.298,69.9569 142.631,70.6236 142.5,71.5 Z"/></g>
<g><path style="opacity:1" fill="#4d4e50" d="M 174.5,68.5 C 180.167,68.6636 180.5,68.9969 175.5,69.5C 175.5,70.5 175.5,71.5 175.5,72.5C 179.172,73.0447 178.838,73.3781 174.5,73.5C 174.657,74.8734 174.49,76.2068 174,77.5C 173.346,78.6956 172.846,78.6956 172.5,77.5C 173.423,74.5534 174.089,71.5534 174.5,68.5 Z"/></g>
<g><path style="opacity:1" fill="#636365" d="M 17.5,74.5 C 19.2155,73.4261 20.2155,71.7594 20.5,69.5C 21.0016,68.479 21.6683,68.3123 22.5,69C 21.8122,71.9292 20.8122,74.7625 19.5,77.5C 18.0815,76.9953 17.4148,75.9953 17.5,74.5 Z"/></g>
<g><path style="opacity:1" fill="#6e6f71" d="M 184.5,69.5 C 186.414,72.1512 187.247,75.1512 187,78.5C 184.421,74.6338 181.755,74.6338 179,78.5C 180.268,75.3245 182.101,72.3245 184.5,69.5 Z"/></g>
<g><path style="opacity:1" fill="#727374" d="M 47.5,68.5 C 54.9395,67.7533 56.9395,70.5866 53.5,77C 50.9058,78.6006 48.2392,78.7673 45.5,77.5C 46.4226,74.5534 47.0893,71.5534 47.5,68.5 Z"/></g>
<g><path style="opacity:1" fill="#f1f1f1" d="M 48.5,69.5 C 53.3276,69.3852 54.6609,71.5519 52.5,76C 50.8659,76.4935 49.1992,76.6602 47.5,76.5C 47.9926,74.1944 48.3259,71.861 48.5,69.5 Z"/></g>
<g><path style="opacity:1" fill="#707173" d="M 2.5,68.5 C 3.37644,68.3691 4.04311,68.7025 4.5,69.5C 3.42294,71.7294 2.75628,74.0628 2.5,76.5C 4.19919,76.6602 5.86586,76.4935 7.5,76C 8.40561,73.5529 9.23894,71.0529 10,68.5C 10.4931,72.0281 9.65979,75.1947 7.5,78C 5.83333,78.6667 4.16667,78.6667 2.5,78C 1.60513,74.9049 1.60513,71.7383 2.5,68.5 Z"/></g>
<g><path style="opacity:1" fill="#6f7072" d="M 151.5,69.5 C 155.908,68.3732 156.908,68.3732 154.5,69.5C 154.795,72.7341 154.129,75.7341 152.5,78.5C 152.167,78.1667 151.833,77.8333 151.5,77.5C 152.167,75.1667 152.833,72.8333 153.5,70.5C 153.043,69.7025 152.376,69.3691 151.5,69.5 Z"/></g>
<g><path style="opacity:1" fill="#808082" d="M 190.5,76.5 C 192.527,76.3379 194.527,76.5045 196.5,77C 194.228,79.0904 192.228,78.9238 190.5,76.5 Z"/></g>
</svg>
