<?xml version="1.0" encoding="UTF-8"?>
<!DOCTYPE svg PUBLIC "-//W3C//DTD SVG 1.1//EN" "http://www.w3.org/Graphics/SVG/1.1/DTD/svg11.dtd">
<svg xmlns="http://www.w3.org/2000/svg" version="1.1" width="512px" height="512px" style="shape-rendering:geometricPrecision; text-rendering:geometricPrecision; image-rendering:optimizeQuality; fill-rule:evenodd; clip-rule:evenodd" xmlns:xlink="http://www.w3.org/1999/xlink">
<g><path style="opacity:0.964" fill="#000000" d="M 220.5,47.5 C 260.392,43.7139 291.225,58.3806 313,91.5C 331.825,128.183 329.158,163.183 305,196.5C 275.898,227.641 241.064,236.474 200.5,223C 155.43,201.029 137.264,165.196 146,115.5C 157.37,77.9582 182.204,55.2915 220.5,47.5 Z M 233.5,79.5 C 269.281,82.7809 288.947,102.281 292.5,138C 289.072,173.262 269.739,192.762 234.5,196.5C 205.629,194.655 186.796,179.989 178,152.5C 172.708,117.565 186.542,94.0654 219.5,82C 224.315,81.1966 228.981,80.3633 233.5,79.5 Z"/></g>
<g><path style="opacity:0.972" fill="#000000" d="M 176.5,260.5 C 216.168,260.333 255.835,260.5 295.5,261C 320.451,263.564 342.285,273.064 361,289.5C 364.821,298.05 363.321,305.55 356.5,312C 350.675,314.923 344.675,315.256 338.5,313C 325.199,302.784 310.199,296.451 293.5,294C 253.167,293.333 212.833,293.333 172.5,294C 133.667,302.167 110.167,325.667 102,364.5C 101.333,374.833 101.333,385.167 102,395.5C 104.549,415.469 115.716,426.969 135.5,430C 191.817,431.278 248.15,431.944 304.5,432C 315.158,438.611 317.324,447.444 311,458.5C 309.59,459.787 308.09,460.954 306.5,462C 248.582,463.658 190.582,463.992 132.5,463C 97.4554,458.621 76.6221,439.121 70,404.5C 64.1935,364.72 73.5268,329.053 98,297.5C 119.506,275.276 145.672,262.943 176.5,260.5 Z"/></g>
<g><path style="opacity:0.964" fill="#000000" d="M 401.5,345.5 C 409.956,344.808 416.122,348.141 420,355.5C 421.431,366.422 421.931,377.422 421.5,388.5C 431.839,388.334 442.172,388.5 452.5,389C 463.806,394.479 466.639,402.979 461,414.5C 459.127,416.709 456.96,418.542 454.5,420C 443.564,421.406 432.564,421.906 421.5,421.5C 421.931,432.578 421.431,443.578 420,454.5C 415.053,462.717 407.886,465.55 398.5,463C 393.6,461.098 390.433,457.598 389,452.5C 388.5,442.172 388.334,431.839 388.5,421.5C 377.422,421.931 366.422,421.431 355.5,420C 345.179,413.688 343.013,405.188 349,394.5C 350.543,392.622 352.376,391.122 354.5,390C 365.756,388.567 377.09,388.067 388.5,388.5C 388.334,378.161 388.5,367.828 389,357.5C 391.085,351.246 395.252,347.246 401.5,345.5 Z"/></g>
</svg>
